<svg width="64" height="64" viewBox="0 0 64 64" fill="none" xmlns="http://www.w3.org/2000/svg">
<rect width="64" height="64" rx="16" fill="#FE3CAC" fill-opacity="0.5"/>
<path d="M46.4005 29.6003C46.4005 20.3218 38.8787 12.8001 29.6003 12.8001C20.3218 12.8001 12.8001 20.3218 12.8001 29.6003C12.8001 38.8787 20.3218 46.4005 29.6003 46.4005C38.8787 46.4005 46.4005 38.8787 46.4005 29.6003ZM51.2005 29.6003C51.2005 34.7002 49.4289 39.3841 46.4731 43.0793L55.2974 51.9036L55.4615 52.0865C56.2303 53.0291 56.1761 54.4187 55.2974 55.2974C54.4187 56.1761 53.0291 56.2303 52.0865 55.4615L51.9036 55.2974L43.0793 46.4731C39.3841 49.4289 34.7002 51.2005 29.6003 51.2005C17.6708 51.2005 8 41.5297 8 29.6003C8 17.6708 17.6708 8 29.6003 8C41.5297 8 51.2005 17.6708 51.2005 29.6003Z" fill="#FE3CAC"/>
</svg>
