<svg width="64" height="64" viewBox="0 0 64 64" fill="none" xmlns="http://www.w3.org/2000/svg">
<rect width="64" height="64" rx="16" fill="#FE3CAC" fill-opacity="0.5"/>
<path d="M47.2727 27.1667C47.2727 25.9701 46.2959 25 45.0909 25H18.9091C17.7041 25 16.7273 25.9701 16.7273 27.1667V44.5C16.7273 45.6966 17.7041 46.6667 18.9091 46.6667H45.0909C46.2959 46.6667 47.2727 45.6966 47.2727 44.5V27.1667ZM23.2727 38V33.6667C23.2727 32.4701 24.2496 31.5 25.4545 31.5C26.6595 31.5 27.6364 32.4701 27.6364 33.6667V38C27.6364 39.1966 26.6595 40.1667 25.4545 40.1667C24.2496 40.1667 23.2727 39.1966 23.2727 38ZM36.3636 38V33.6667C36.3636 32.4701 37.3405 31.5 38.5455 31.5C39.7504 31.5 40.7273 32.4701 40.7273 33.6667V38C40.7273 39.1966 39.7504 40.1667 38.5455 40.1667C37.3405 40.1667 36.3636 39.1966 36.3636 38ZM51.6364 33.6667H53.8182C55.0232 33.6667 56 34.6367 56 35.8333C56 37.03 55.0232 38 53.8182 38H51.6364V44.5C51.6364 48.0899 48.7059 51 45.0909 51H18.9091C15.2941 51 12.3636 48.0899 12.3636 44.5V38H10.1818C8.97683 38 8 37.03 8 35.8333C8 34.6367 8.97683 33.6667 10.1818 33.6667H12.3636V27.1667C12.3636 23.5768 15.2941 20.6667 18.9091 20.6667H29.8182V16.3333H23.2727C22.0677 16.3333 21.0909 15.3633 21.0909 14.1667C21.0909 12.97 22.0677 12 23.2727 12H32C33.205 12 34.1818 12.97 34.1818 14.1667V20.6667H45.0909C48.7059 20.6667 51.6364 23.5768 51.6364 27.1667V33.6667Z" fill="#FE3CAC"/>
</svg>
