<svg width="64" height="64" viewBox="0 0 64 64" fill="none" xmlns="http://www.w3.org/2000/svg">
<rect width="64" height="64" rx="16" fill="#FE3CAC" fill-opacity="0.4"/>
<path d="M36.9286 51.6364C38.1515 51.6364 39.1429 52.6132 39.1429 53.8182C39.1429 55.0232 38.1515 56 36.9286 56H28.0714C26.8485 56 25.8571 55.0232 25.8571 53.8182C25.8571 52.6132 26.8485 51.6364 28.0714 51.6364H36.9286ZM39.1429 42.9091C40.3658 42.9091 41.3571 43.8859 41.3571 45.0909C41.3571 46.2959 40.3658 47.2727 39.1429 47.2727H25.8571C24.6342 47.2727 23.6429 46.2959 23.6429 45.0909C23.6429 43.8859 24.6342 42.9091 25.8571 42.9091H39.1429ZM43.5714 23.2727C43.5714 20.3795 42.4041 17.6055 40.3278 15.5597C38.3814 13.6417 35.7856 12.5102 33.0492 12.3764L32.5 12.3636C29.5637 12.3636 26.7484 13.5138 24.6722 15.5597C22.5959 17.6055 21.4286 20.3795 21.4286 23.2727L21.4459 23.9418C21.5368 25.5337 22.0307 27.3262 24.1013 29.3665C25.7757 31.0164 27.4596 33.135 28.0282 35.9354C28.268 37.1168 27.4907 38.2663 26.2918 38.5028C25.1673 38.7244 24.0723 38.0644 23.7423 37.0071L23.6861 36.7919L23.5369 36.2145C23.1187 34.8853 22.2176 33.6809 20.9701 32.4517C18.0025 29.5276 17.1895 26.69 17.0324 24.2784L17 23.2727C17 19.2221 18.632 15.3365 21.5389 12.4723C24.4457 9.60811 28.3891 8 32.5 8L33.2676 8.01918C37.099 8.20623 40.7358 9.7869 43.4611 12.4723C46.368 15.3365 48 19.2221 48 23.2727C48 26.6129 46.7067 30.0263 44.0277 32.4496L44.0299 32.4517C42.4048 34.0529 41.6349 35.2104 41.3139 36.7919C41.0739 37.9733 39.9072 38.7391 38.7082 38.5028C37.5093 38.2663 36.732 37.1168 36.9718 35.9354C37.5366 33.1535 38.981 31.2561 40.8987 29.3665L40.983 29.2876C42.6742 27.7879 43.5714 25.5697 43.5714 23.2727Z" fill="#FE3CAC"/>
</svg>
