<svg width="64" height="64" viewBox="0 0 64 64" fill="none" xmlns="http://www.w3.org/2000/svg">
<rect width="64" height="64" rx="16" fill="#0477BF" fill-opacity="0.5"/>
<path d="M21.73 16.6486C22.5821 15.7838 23.9632 15.7838 24.8153 16.6486C25.6673 17.5133 25.6673 18.915 24.8153 19.7797L13.2669 31.5L24.8153 43.2203L24.9644 43.3889C25.6634 44.2587 25.6141 45.5407 24.8153 46.3514C24.0165 47.1621 22.7532 47.2122 21.8962 46.5028L21.73 46.3514L8.63904 33.0656C7.78699 32.2008 7.78699 30.7992 8.63904 29.9344L21.73 16.6486ZM39.1847 16.6486C40.0368 15.7838 41.4179 15.7838 42.27 16.6486L55.361 29.9344C56.213 30.7992 56.213 32.2008 55.361 33.0656L42.27 46.3514C41.4179 47.2162 40.0368 47.2162 39.1847 46.3514C38.3326 45.4867 38.3326 44.085 39.1847 43.2203L50.7331 31.5L39.1847 19.7797L39.0356 19.6111C38.3366 18.7413 38.3859 17.4593 39.1847 16.6486Z" fill="#0477BF"/>
</svg>
