<svg width="64" height="64" viewBox="0 0 64 64" fill="none" xmlns="http://www.w3.org/2000/svg">
<rect width="64" height="64" rx="16" fill="#0477BF" fill-opacity="0.5"/>
<path d="M34.212 34.6781C34.3426 33.2703 34.9221 31.9356 35.8741 30.879L51.6345 13.3809H12.3634L28.1281 30.879C29.2161 32.0864 29.8194 33.6575 29.8201 35.2856V48.4305L34.1821 50.6189H34.1843V35.2856L34.212 34.6781ZM38.5484 50.6189L38.5399 50.897C38.4989 51.5468 38.3132 52.1807 37.9965 52.7516C37.6345 53.4039 37.1119 53.9524 36.4793 54.3452C35.8465 54.7381 35.1235 54.9617 34.3803 54.9955C33.7302 55.025 33.0832 54.9086 32.4859 54.6554L32.2323 54.5378L27.8682 52.3473C27.143 51.9834 26.532 51.4246 26.1059 50.7322C25.7331 50.1265 25.5154 49.4395 25.4666 48.7322L25.4559 48.4284V35.2856C25.4554 34.7432 25.2537 34.2204 24.8912 33.8182L9.12441 16.318V16.3158C8.55893 15.6869 8.18752 14.9064 8.05468 14.0697C7.92197 13.2332 8.0317 12.3753 8.37432 11.6012C8.71703 10.8271 9.27787 10.1698 9.98531 9.70805C10.6926 9.24657 11.5177 9.00041 12.3613 9H51.6452L51.9606 9.01283C52.6929 9.06784 53.4011 9.30768 54.019 9.71233C54.7252 10.1748 55.2841 10.8317 55.6258 11.6055C55.9673 12.3791 56.0783 13.2363 55.9454 14.0719C55.8123 14.9075 55.4403 15.6875 54.8757 16.3158L54.8736 16.318L39.1131 33.8182H39.111C38.7487 34.2203 38.5489 34.7434 38.5484 35.2856V50.6189Z" fill="#0477BF"/>
</svg>
