<svg width="228" height="48" viewBox="0 0 228 48" fill="none" xmlns="http://www.w3.org/2000/svg">
<path d="M0 0H12.4059C16.4034 0 19.3868 0.325926 21.3559 0.977778C23.3251 1.57037 24.9399 2.80494 26.2002 4.68148C27.4014 6.53827 28.002 9.55062 28.002 13.7185C28.002 16.5432 27.5786 18.479 26.7319 19.5259C25.8063 20.6914 24.0734 21.5506 21.5332 22.1037C24.4476 22.7556 26.4069 23.8222 27.4112 25.3037C28.4155 26.7654 28.9177 29.0963 28.9177 32.2963V36.7111C28.9177 40.0494 28.5534 42.4593 27.8248 43.9407C27.0568 45.5605 25.8851 46.6272 24.3097 47.1407C22.6556 47.7136 19.3474 48 14.385 48H0V0ZM12.4059 8.26667V18.9333C12.7604 18.8938 13.1838 18.8741 13.6761 18.8741C14.897 18.8741 15.665 18.5679 15.98 17.9556C16.3345 17.363 16.5117 15.6444 16.5117 12.8C16.5117 11.2593 16.3739 10.2123 16.0982 9.65926C15.7831 9.06667 15.4188 8.68148 15.0053 8.5037C14.6311 8.34568 13.7647 8.26667 12.4059 8.26667ZM12.4059 26.4V39.8222C14.1782 39.7235 15.3007 39.437 15.7733 38.963C16.2656 38.4691 16.5117 37.2543 16.5117 35.3185V30.8148C16.5117 28.8198 16.2951 27.5852 15.8619 27.1111C15.4287 26.6963 14.2767 26.4593 12.4059 26.4Z" fill="black"/>
<path d="M33.3779 0H42.2097C48.0977 0 52.0656 0.246914 54.1135 0.740741C56.1615 1.15556 57.855 2.30123 59.1941 4.17778C60.4937 6.11358 61.1436 9.08642 61.1436 13.0963C61.1436 16.8296 60.671 19.3481 59.7258 20.6519C58.8002 21.9358 56.9984 22.6963 54.3203 22.9333C56.8212 23.6247 58.4753 24.4543 59.2827 25.4222C60.1688 26.5284 60.6907 27.4568 60.8482 28.2074C60.9664 28.7605 61.0451 29.6099 61.0845 30.7556C61.1239 31.9012 61.1436 33.442 61.1436 35.3778V48H49.5942V32.0296C49.5942 29.442 49.3875 27.8716 48.9739 27.3185C48.5604 26.7062 47.497 26.4 45.7838 26.4V48H33.3779V0ZM45.7838 8.26667V18.9333C47.241 18.9333 48.2256 18.7358 48.7376 18.3407C49.3087 17.8864 49.5942 16.6321 49.5942 14.5778V11.9407C49.5942 10.4 49.3087 9.39259 48.7376 8.91852C48.1863 8.48395 47.2017 8.26667 45.7838 8.26667Z" fill="black"/>
<path d="M65.9878 0.0592593H86.7235V9.65926H78.3938V18.7556H86.1918V27.8519H78.3938V38.4H87.521V48H65.9878V0.0592593Z" fill="black"/>
<path d="M120.663 0L114.371 48H95.4962L88.3185 0H101.433C101.808 3.23951 102.231 7.15062 102.703 11.7333C103.176 16.2963 103.56 20.1679 103.855 23.3481C104.151 26.5284 104.436 29.9358 104.712 33.5704C104.85 31.6938 105.017 29.4617 105.214 26.8741C105.411 24.2667 105.598 21.7975 105.775 19.4667C105.972 17.116 106.15 14.9827 106.307 13.0667C106.484 11.1506 106.612 9.7679 106.691 8.91852L107.607 0H120.663Z" fill="black"/>
<path d="M144.293 0L151.382 48H138.681L138.06 39.3778H133.6L132.862 48H119.983L126.334 0H144.293ZM137.706 30.8741C137.391 28.1877 137.105 25.5802 136.849 23.0519C136.613 20.5037 136.268 16.4049 135.816 10.7556C135.067 16.2074 134.536 20.3259 134.221 23.1111C133.905 25.8765 133.649 28.4642 133.453 30.8741H137.706Z" fill="black"/>
<path d="M153.538 0H162.37C168.258 0 172.226 0.246914 174.274 0.740741C176.322 1.15556 178.015 2.30123 179.355 4.17778C180.654 6.11358 181.304 9.08642 181.304 13.0963C181.304 16.8296 180.831 19.3481 179.886 20.6519C178.961 21.9358 177.159 22.6963 174.481 22.9333C176.982 23.6247 178.636 24.4543 179.443 25.4222C180.329 26.5284 180.851 27.4568 181.009 28.2074C181.127 28.7605 181.206 29.6099 181.245 30.7556C181.284 31.9012 181.304 33.442 181.304 35.3778V48H169.755V32.0296C169.755 29.442 169.548 27.8716 169.134 27.3185C168.721 26.7062 167.657 26.4 165.944 26.4V48H153.538V0ZM165.944 8.26667V18.9333C167.401 18.9333 168.386 18.7358 168.898 18.3407C169.469 17.8864 169.755 16.6321 169.755 14.5778V11.9407C169.755 10.4 169.469 9.39259 168.898 8.91852C168.347 8.48395 167.362 8.26667 165.944 8.26667Z" fill="black"/>
<path d="M186.148 0H195.453C201.4 0 205.456 0.28642 207.622 0.859259C209.749 1.39259 211.364 2.30123 212.467 3.58519C213.53 4.80988 214.209 6.20247 214.505 7.76296C214.8 9.18518 214.948 12.237 214.948 16.9185V33.7481C214.948 38.1728 214.741 41.0469 214.327 42.3704C213.894 43.8716 213.195 44.9975 212.23 45.7481C211.187 46.6173 209.956 47.2099 208.538 47.5259C206.923 47.842 204.678 48 201.803 48H186.148V0ZM198.554 8.26667V39.8222C200.326 39.8222 201.429 39.4568 201.862 38.7259C202.315 37.9753 202.542 36.0099 202.542 32.8296V14.1926C202.542 11.9407 202.463 10.5481 202.306 10.0148C202.148 9.42222 201.823 8.97778 201.331 8.68148C200.898 8.40494 199.972 8.26667 198.554 8.26667Z" fill="black"/>
<path d="M215.901 41.9319C215.901 38.5805 218.61 35.8637 221.951 35.8637C225.292 35.8637 228 38.5805 228 41.9319C228 45.2832 225.292 48 221.951 48C218.61 48 215.901 45.2832 215.901 41.9319Z" fill="#0477BF"/>
</svg>
