<svg width="348" height="300" viewBox="0 0 348 300" fill="none" xmlns="http://www.w3.org/2000/svg">
<path fill-rule="evenodd" clip-rule="evenodd" d="M167.58 0.0170179C167.361 0.0482367 165.757 0.157502 163.997 0.251158C162.237 0.344815 160.025 0.485299 159.09 0.563346C158.155 0.657002 156.473 0.813095 155.352 0.93797C154.23 1.06284 152.735 1.28138 152.002 1.40625C151.27 1.54674 150.523 1.73405 150.32 1.84331C150.133 1.95258 149.931 2.1555 149.884 2.28038C149.837 2.42086 149.962 2.63939 150.164 2.8111C150.491 3.06085 150.741 3.09206 152.703 3.01402C153.903 2.96719 156.115 2.81109 157.61 2.68622C159.106 2.54573 161.318 2.35842 162.517 2.26477C163.716 2.18672 167.782 2.10867 171.552 2.10867C175.399 2.10867 179.013 2.17111 179.808 2.26477C180.571 2.35842 181.973 2.43647 182.923 2.43647C184.2 2.43647 184.73 2.37403 184.995 2.20233C185.182 2.07746 185.338 1.85892 185.338 1.73405C185.338 1.60917 185.182 1.39064 184.995 1.26577C184.792 1.14089 183.967 0.906749 183.157 0.735046C182.347 0.563343 180.586 0.360421 179.262 0.266765C177.938 0.188718 174.854 0.0794521 172.408 0.032624C169.963 0.00140527 167.798 -0.0142008 167.58 0.0170179ZM204.435 3.60717C204.279 3.74766 204.17 3.93497 204.17 4.01301C204.186 4.09106 204.342 4.32521 204.544 4.54374C204.825 4.85592 205.416 5.05885 207.769 5.62078C209.358 5.99541 210.9 6.35442 211.196 6.41686C211.492 6.46369 212.379 6.651 213.143 6.83831C213.906 7.02562 215.604 7.43147 216.881 7.77487C218.174 8.10267 219.358 8.44608 219.529 8.52413C219.701 8.60217 220.339 8.80509 220.931 8.96119C221.523 9.13289 222.66 9.46069 223.424 9.67922C224.187 9.91336 225.636 10.3816 226.617 10.725C227.598 11.0685 229.25 11.6148 230.278 11.9582C231.306 12.286 232.676 12.6762 233.315 12.8167C233.954 12.9572 234.655 13.0508 234.873 13.0196C235.122 12.9884 235.278 12.8635 235.309 12.6606C235.34 12.4889 235.231 12.2235 235.075 12.0518C234.92 11.8957 234.515 11.646 234.172 11.4899C233.829 11.3338 233.206 11.0528 232.77 10.8655C232.349 10.6782 231.711 10.4285 231.368 10.3036C231.025 10.1943 230.356 9.96019 229.888 9.77288C229.421 9.58556 227.739 9.00801 226.15 8.46169C224.561 7.93097 222.878 7.38464 222.411 7.27538C221.944 7.16611 221.492 7.02563 221.399 6.94758C221.305 6.88514 220.152 6.54173 218.828 6.19833C217.504 5.85492 215.993 5.46469 215.479 5.30859C214.965 5.16811 213.781 4.88714 212.831 4.69983C211.881 4.49691 210.245 4.16911 209.171 3.95058C208.096 3.73205 206.647 3.51352 205.962 3.45108C204.902 3.37303 204.653 3.40425 204.435 3.60717ZM127.889 6.04223C127.453 6.12028 126.939 6.26077 126.767 6.33881C126.596 6.41686 126.331 6.49491 126.176 6.49491C126.035 6.49491 125.101 6.74466 124.119 7.04124C123.138 7.35342 122.048 7.68122 121.705 7.75926C121.362 7.85292 120.864 8.00902 120.614 8.13389C120.35 8.24316 119.446 8.55534 118.589 8.83631C117.733 9.10167 116.892 9.38264 116.72 9.44508C116.549 9.52312 116.019 9.72605 115.552 9.89775C115.085 10.0851 114.477 10.2724 114.228 10.3348C113.963 10.3972 113.683 10.4909 113.605 10.5533C113.511 10.6158 112.997 10.8187 112.436 11.0216C111.876 11.2245 110.443 11.7709 109.243 12.2392C108.044 12.7074 106.953 13.1445 106.829 13.2069C106.704 13.2694 106.143 13.5191 105.583 13.7533C105.022 13.9874 104.29 14.2996 103.947 14.4557C103.604 14.6118 102.311 15.2362 101.065 15.8293C99.5074 16.5942 98.6663 17.0781 98.3703 17.4527C98.1211 17.7337 97.9497 18.0771 97.9809 18.2019C98.0276 18.3736 98.2457 18.4361 98.8844 18.4205C99.4919 18.4049 100.068 18.2488 100.832 17.8897C101.423 17.6088 102.483 17.1249 103.168 16.7971C103.853 16.4849 104.663 16.1103 104.959 15.9698C105.255 15.8449 105.816 15.5952 106.206 15.4235C106.595 15.2518 107.327 14.9708 107.841 14.7835C108.355 14.5806 108.978 14.3464 109.243 14.2372C109.492 14.1279 110.1 13.8937 110.567 13.722C111.035 13.5347 112.016 13.1757 112.748 12.8947C113.48 12.6138 114.212 12.3328 114.384 12.2548C114.555 12.1767 115.007 12.0206 115.396 11.8801C115.786 11.7553 117.001 11.3338 118.122 10.9592C119.228 10.6002 121.051 10.007 122.172 9.66361C123.278 9.30459 124.82 8.83631 125.599 8.60217C126.362 8.38364 127.593 7.9778 128.325 7.71244C129.057 7.44708 129.836 7.10367 130.07 6.94758C130.361 6.74986 130.49 6.53653 130.459 6.30759C130.428 5.9798 130.335 5.94858 129.571 5.91736C129.104 5.91736 128.341 5.96419 127.889 6.04223ZM251.54 19.638C251.416 19.7473 251.338 19.919 251.354 20.0282C251.369 20.1375 251.525 20.4185 251.712 20.6682C251.883 20.9024 252.304 21.2302 252.631 21.4019C252.958 21.5736 253.675 21.9638 254.22 22.276C254.765 22.5882 255.513 23.0252 255.902 23.2281C256.292 23.4467 256.852 23.7589 257.148 23.9306C257.444 24.1023 258.114 24.4769 258.628 24.7579C259.142 25.0388 259.983 25.5227 260.497 25.8349C261.011 26.1471 261.681 26.5373 261.993 26.709C262.289 26.8807 263.301 27.4739 264.205 28.0358C265.124 28.5978 267.569 30.1743 269.657 31.5636C271.728 32.9372 273.972 34.4513 274.626 34.9196C275.296 35.3878 276.713 36.4337 277.804 37.2454C278.878 38.0571 280.234 39.0561 280.794 39.4619C281.371 39.8833 282.181 40.5077 282.617 40.8667C283.037 41.2414 283.692 41.7721 284.05 42.053C284.424 42.3184 285.109 42.7243 285.577 42.9428C286.044 43.1613 286.573 43.333 286.745 43.333C286.932 43.333 287.088 43.2081 287.134 43.0208C287.181 42.8491 287.088 42.5213 286.932 42.2872C286.792 42.0687 286.387 41.6628 286.028 41.3975C285.686 41.1321 284.844 40.4297 284.175 39.8209C283.505 39.2121 282.632 38.4473 282.243 38.1039C281.854 37.7449 280.421 36.621 279.065 35.6064C277.695 34.5762 276.433 33.624 276.261 33.4991C276.074 33.3742 275.498 32.9528 274.984 32.5626C274.47 32.1723 273.489 31.4699 272.803 31.0328C272.118 30.5802 271.542 30.2211 271.51 30.2211C271.495 30.2211 271.152 29.987 270.732 29.7216C270.327 29.4407 269.89 29.1285 269.75 29.0504C269.61 28.9724 269.252 28.7695 268.971 28.5978C268.675 28.4417 267.943 27.9734 267.351 27.5676C266.759 27.1617 264.952 26.0847 263.332 25.1793C261.728 24.2584 260.388 23.5091 260.342 23.5091C260.295 23.5091 259.999 23.3374 259.672 23.1345C259.36 22.916 258.644 22.4945 258.083 22.1979C257.522 21.8857 256.307 21.2614 255.357 20.7931C254.407 20.3248 253.332 19.8253 252.942 19.6848C252.553 19.5599 252.132 19.4507 251.992 19.4507C251.868 19.4507 251.665 19.5287 251.54 19.638ZM88.6034 22.2448C87.7934 22.6662 87.0301 23.0877 86.9211 23.1813C86.8276 23.275 86.703 23.353 86.6563 23.353C86.6096 23.353 86.1422 23.6028 85.597 23.8994C85.0674 24.2115 84.4911 24.5393 84.3197 24.6486C84.1484 24.7423 83.4474 25.1949 82.762 25.632C82.0766 26.0691 80.8772 26.8027 80.1139 27.2554C79.335 27.7236 77.4814 28.9256 75.986 29.9558C74.4905 30.9704 72.4811 32.344 71.5309 32.9996C70.5807 33.6552 68.6491 35.0757 67.2472 36.1371C65.8452 37.1985 64.6146 38.1507 64.5367 38.2444C64.4433 38.338 64.0227 38.697 63.6021 39.0404C63.1659 39.3838 62.3715 40.0394 61.8107 40.5233C61.25 40.9916 60.7203 41.4599 60.6113 41.5379C60.5178 41.616 60.1284 41.9438 59.7701 42.2404C59.3963 42.5369 58.6797 43.1769 58.1501 43.6296C57.6361 44.0979 57.013 44.6754 56.7482 44.9096C56.4834 45.1437 55.8291 45.7525 55.2683 46.2676C54.7076 46.7827 52.885 48.5622 51.2183 50.2324C49.5359 51.887 47.4019 54.0567 46.4517 55.04C45.517 56.0234 43.9437 57.7561 42.978 58.8643C41.9966 59.9882 40.9841 61.1433 40.7193 61.4399C40.4545 61.7365 39.5198 62.8603 38.6319 63.9374C37.744 65.0144 35.9838 67.2778 34.6909 68.9792C33.4136 70.665 32.3699 72.0855 32.3699 72.1323C32.3699 72.1791 32.3076 72.304 32.2141 72.4133C32.1363 72.5069 31.9026 72.8035 31.7001 73.0689C31.4976 73.3342 30.7343 74.4113 30.0022 75.4883C29.2701 76.5654 28.3043 78.0014 27.8525 78.6882C27.3852 79.3751 26.9023 80.1087 26.7621 80.3272C26.6219 80.5458 25.9521 81.5916 25.2823 82.6686C24.6125 83.7457 23.8959 84.932 23.6779 85.3222C23.4598 85.7125 23.1482 86.2744 22.9769 86.571C22.8055 86.8676 22.5563 87.289 22.4473 87.5075C22.3227 87.7261 22.0578 88.1787 21.8398 88.5221C21.6373 88.8656 21.4036 89.287 21.3257 89.4587C21.2478 89.6304 20.9674 90.1611 20.6871 90.6294C20.4067 91.0977 19.659 92.5025 19.0047 93.7513C18.3661 95 17.5093 96.6858 17.1043 97.4975C16.6993 98.3092 16.1074 99.5424 15.7802 100.229C15.4687 100.916 14.721 102.602 14.1135 103.975C13.5216 105.349 12.8829 106.785 12.7271 107.175C12.5558 107.566 12.3065 108.065 12.1975 108.315C12.0729 108.549 11.9638 108.814 11.9638 108.892C11.9638 108.97 11.8704 109.283 11.7458 109.564C11.6212 109.829 11.3408 110.516 11.1227 111.078C10.9046 111.64 10.6242 112.404 10.484 112.795C10.3438 113.185 9.76748 114.871 9.2067 116.541C8.64592 118.211 8.02284 120.256 7.82033 121.068C7.61783 121.879 7.44648 122.832 7.44648 123.175C7.4309 123.55 7.52437 123.877 7.68014 124.002C7.86706 124.158 7.9761 124.127 8.22534 123.877C8.39669 123.706 8.6615 123.269 8.81727 122.91C8.98862 122.535 9.26901 121.817 9.45593 121.302C9.65844 120.787 9.90767 120.116 10.0479 119.819C10.1725 119.522 10.5152 118.492 10.7956 117.556C11.076 116.619 11.4965 115.339 11.7302 114.746C11.9483 114.153 12.2131 113.403 12.3065 113.107C12.3844 112.81 12.5246 112.483 12.5869 112.404C12.6648 112.326 12.9141 111.718 13.1321 111.078C13.3658 110.438 13.6773 109.626 13.8331 109.283C13.9889 108.939 14.2693 108.237 14.4562 107.722C14.6431 107.207 14.9702 106.395 15.1883 105.927C15.4064 105.458 15.6401 104.928 15.7024 104.756C15.7647 104.584 16.0295 103.991 16.2943 103.429C16.5435 102.867 16.9174 102.024 17.1199 101.556C17.3068 101.088 17.556 100.588 17.6651 100.463C17.7897 100.338 17.8832 100.182 17.8832 100.12C17.8832 100.042 18.2726 99.1677 18.7555 98.1687C19.2228 97.1541 19.7369 96.0771 19.8926 95.7805C20.0484 95.4839 20.3444 94.922 20.5624 94.5318C20.7805 94.1415 21.2946 93.205 21.6996 92.4245C22.1046 91.644 22.5719 90.8323 22.7277 90.5982C22.8834 90.3484 23.0236 90.1299 23.0236 90.0831C23.0236 90.0363 23.1482 89.8177 23.3196 89.5836C23.4754 89.3338 23.9583 88.5221 24.3788 87.7417C24.815 86.9612 25.3135 86.0559 25.516 85.7125C25.7029 85.3691 26.0456 84.8383 26.2793 84.5418C26.5129 84.2452 26.8712 83.652 27.0737 83.215C27.2918 82.7935 27.4943 82.4033 27.541 82.3564C27.5877 82.3096 28.1329 81.5291 28.7404 80.6082C29.3635 79.6716 29.8776 78.8443 29.8776 78.7663C29.8776 78.6882 29.9243 78.5946 29.9866 78.579C30.0645 78.5478 30.4539 78.0014 30.8901 77.3614C31.3107 76.7215 31.7001 76.1595 31.7468 76.1127C31.7936 76.0659 32.4322 75.1917 33.1644 74.1615C33.8965 73.1313 34.8467 71.7889 35.2517 71.1957C35.6723 70.6026 36.1708 69.9314 36.3888 69.7129C36.5913 69.4943 37.1365 68.8231 37.5883 68.23C38.04 67.6368 38.5385 66.9812 38.6942 66.7939C38.8656 66.6066 39.1616 66.232 39.3796 65.951C39.5977 65.67 40.0027 65.1549 40.2831 64.8115C40.5635 64.4525 41.0464 63.8593 41.3735 63.4847C41.6851 63.0945 42.9935 61.5804 44.2709 60.1287C45.5482 58.6614 47.3707 56.6478 48.3209 55.6644C49.2711 54.681 50.8289 53.1045 51.7635 52.1523C52.7137 51.2158 54.2247 49.7329 55.1126 48.8743C56.016 48.0158 57.6205 46.5485 58.6953 45.612C59.7701 44.6598 60.7203 43.8169 60.8138 43.7389C60.9073 43.6452 61.2811 43.3174 61.655 43.0208C62.0132 42.7243 62.8856 41.9906 63.5865 41.3975C64.2719 40.8043 66.11 39.3682 67.6522 38.2131C69.1943 37.0581 70.5651 36.0122 70.6897 35.8873C70.8143 35.7625 71.4374 35.3098 72.0761 34.8571C72.6992 34.4045 73.3846 33.9362 73.5715 33.8113C73.774 33.6864 74.4438 33.2338 75.0825 32.7967C75.7056 32.3752 76.2508 31.9694 76.2975 31.9226C76.3442 31.8757 76.9517 31.4231 77.6527 30.9392C78.3692 30.4553 78.9768 30.0651 79.0235 30.0651C79.0702 30.0651 79.8958 29.5499 80.846 28.9256C81.8118 28.2856 82.8866 27.6144 83.2293 27.4271C83.572 27.2398 84.273 26.8027 84.787 26.4593C85.3011 26.1315 85.8307 25.8037 85.9553 25.7413C86.0799 25.6944 86.298 25.5539 86.4226 25.4447C86.5473 25.351 86.9055 25.1169 87.2015 24.9608C87.4975 24.7891 88.3698 24.3052 89.1175 23.8837C89.8963 23.4467 90.6596 22.9004 90.8777 22.6194C91.0802 22.3384 91.236 21.9794 91.2048 21.8389C91.1892 21.636 91.0023 21.5423 90.6285 21.5267C90.239 21.4955 89.6783 21.6984 88.6034 22.2448ZM299.129 54.5249C299.051 54.5718 299.004 54.8059 299.02 55.0244C299.035 55.243 299.238 55.7269 299.471 56.0859C299.721 56.4449 300.359 57.2566 300.92 57.8966C301.481 58.5209 302.322 59.4887 302.789 60.035C303.257 60.5814 304.176 61.6272 304.83 62.3608C305.469 63.0945 306.808 64.7179 307.79 65.9666C308.771 67.2154 310.344 69.2446 311.279 70.4933C312.213 71.7421 313.491 73.4903 314.114 74.3957C314.737 75.301 316.232 77.4863 317.432 79.2814C318.631 81.0609 319.613 82.5438 319.613 82.5906C319.613 82.6374 319.784 82.9028 320.002 83.1837C320.205 83.4491 320.391 83.7301 320.391 83.8081C320.391 83.8706 320.641 84.3076 320.937 84.7759C321.233 85.2442 321.482 85.6656 321.482 85.7125C321.482 85.7593 321.716 86.1651 321.996 86.6178C322.292 87.0549 322.79 87.929 323.117 88.5221C323.429 89.1153 323.85 89.8958 324.052 90.2392C324.239 90.5826 324.551 91.1445 324.753 91.4879C324.956 91.8313 325.532 92.924 326.046 93.9074C326.56 94.8908 327.323 96.4049 327.744 97.2634C328.164 98.1219 328.647 99.0741 328.803 99.3707C328.974 99.6672 329.099 100.011 329.115 100.12C329.115 100.214 329.239 100.495 329.395 100.744C329.551 100.978 330.283 102.539 331.015 104.21C331.763 105.88 332.651 108.034 332.993 108.97C333.352 109.907 333.694 110.828 333.772 111C333.85 111.171 334.317 112.404 334.8 113.731C335.299 115.058 335.813 116.51 335.969 116.931C336.124 117.368 336.529 118.539 336.888 119.554C337.23 120.553 337.667 121.848 337.822 122.441C337.978 123.019 338.383 124.361 338.71 125.438C339.022 126.515 339.878 129.7 340.595 132.541C341.312 135.381 342.044 138.394 342.215 139.253C342.386 140.111 342.682 141.719 342.9 142.843C343.103 143.967 343.352 145.465 343.446 146.199C343.555 146.932 343.648 147.557 343.679 147.604C343.71 147.65 343.882 148.696 344.069 149.945C344.256 151.194 344.474 152.802 344.552 153.535C344.63 154.269 344.848 155.705 345.035 156.735C345.237 157.75 345.486 158.686 345.58 158.796C345.689 158.905 345.922 158.998 346.094 158.998C346.265 158.998 346.53 158.811 346.67 158.577C346.888 158.202 346.919 157.921 346.826 156.735C346.764 155.955 346.561 154.284 346.405 152.989C346.234 151.709 346.063 150.476 346.016 150.257C345.969 150.039 345.829 149.087 345.704 148.15C345.58 147.213 345.377 145.809 345.237 145.028C345.112 144.248 344.894 143.093 344.77 142.453C344.645 141.813 344.443 140.751 344.318 140.111C344.193 139.471 343.804 137.676 343.446 136.131C343.087 134.585 342.698 132.868 342.573 132.306C342.449 131.744 342.044 130.137 341.67 128.716C341.296 127.296 340.751 125.298 340.439 124.268C340.128 123.237 339.458 121.13 338.944 119.585C338.43 118.039 337.76 116.041 337.448 115.136C337.121 114.231 336.732 113.201 336.576 112.842C336.42 112.467 336.28 112.092 336.28 112.014C336.28 111.936 336.187 111.624 336.062 111.359C335.937 111.078 335.61 110.282 335.346 109.595C335.081 108.908 334.8 108.206 334.738 108.034C334.66 107.862 334.52 107.519 334.411 107.253C334.302 106.988 333.975 106.192 333.679 105.458C333.383 104.725 333.025 103.882 332.9 103.585C332.76 103.289 332.401 102.508 332.105 101.868C331.81 101.228 331.389 100.307 331.186 99.8389C330.968 99.3707 330.065 97.4663 329.161 95.6244C328.258 93.7825 327.152 91.644 326.685 90.8636C326.233 90.0831 325.797 89.287 325.703 89.0685C325.61 88.8499 325.361 88.3973 325.143 88.0539C324.924 87.7105 324.675 87.2734 324.597 87.0861C324.504 86.8832 324.052 86.1027 323.585 85.3222C323.117 84.5418 322.728 83.8706 322.728 83.8081C322.728 83.7301 322.541 83.4491 322.339 83.1837C322.121 82.9028 321.949 82.6218 321.949 82.5594C321.934 82.4813 321.7 82.1067 321.404 81.7008C321.108 81.2794 320.859 80.9204 320.859 80.8736C320.859 80.8267 320.501 80.2492 320.049 79.5936C319.613 78.9224 318.943 77.9234 318.585 77.3614C318.211 76.7995 317.447 75.66 316.855 74.8015C316.279 73.9586 314.971 72.1323 313.974 70.7431C312.977 69.3694 311.637 67.5744 311.014 66.7627C310.391 65.9666 309.114 64.3901 308.179 63.2506C307.244 62.1267 306.232 60.9248 305.936 60.5814C305.64 60.238 304.331 58.8487 303.039 57.4907C301.746 56.1327 300.453 54.8839 300.172 54.7122C299.908 54.5562 299.58 54.4157 299.471 54.4157C299.347 54.4157 299.207 54.4625 299.129 54.5249ZM0.514645 169.504C0.374451 169.706 0.203105 170.534 0.109642 171.486C0.000602404 172.547 -0.0305519 175.154 0.0317567 178.9C0.0940653 182.569 0.249833 185.956 0.436759 188.188C0.608108 190.124 0.857343 192.683 0.997538 193.885C1.12215 195.087 1.34024 196.804 1.44928 197.71C1.57389 198.615 1.74524 199.879 1.83871 200.519C1.91659 201.159 2.15025 202.502 2.3216 203.485C2.50852 204.469 2.82007 206.154 3.02257 207.231C3.24065 208.308 3.52104 209.682 3.64566 210.275C3.78585 210.868 4.03508 211.961 4.19086 212.695C4.3622 213.428 4.62702 214.552 4.78279 215.192C4.95414 215.832 5.15664 216.675 5.2501 217.065C5.34357 217.456 5.70184 218.86 6.06011 220.187C6.40281 221.514 6.80782 222.794 6.94801 223.044C7.16609 223.387 7.32186 223.465 7.78918 223.465C8.24092 223.465 8.42784 223.387 8.55246 223.122C8.67708 222.856 8.67708 222.591 8.56804 222.138C8.47457 221.795 8.19418 220.874 7.94495 220.109C7.69572 219.344 7.33744 218.033 7.15051 217.221C6.96359 216.41 6.63647 214.958 6.41839 214.021C6.21589 213.085 5.9355 211.883 5.81088 211.368C5.70184 210.853 5.45261 209.76 5.28126 208.948C5.09433 208.137 4.8451 206.935 4.7049 206.295C4.58029 205.655 4.33105 204.344 4.17528 203.407C4.00393 202.471 3.78585 201.128 3.70796 200.441C3.6145 199.755 3.44315 198.599 3.31854 197.866C3.19392 197.132 2.94468 195.306 2.77333 193.807C2.60199 192.309 2.39948 190.202 2.30602 189.125C2.22813 188.047 2.08794 186.05 1.99448 184.676C1.90101 183.302 1.7764 179.447 1.69851 176.091C1.60505 171.424 1.51159 169.894 1.35582 169.566C1.2312 169.332 1.04427 169.145 0.950808 169.145C0.841768 169.145 0.654839 169.301 0.514645 169.504ZM346.187 177.339C346.047 177.464 345.907 177.808 345.86 178.089C345.829 178.354 345.72 179.4 345.626 180.383C345.549 181.367 345.393 183.505 345.315 185.144C345.221 186.783 345.05 188.922 344.925 189.905C344.816 190.888 344.661 192.231 344.614 192.871C344.552 193.511 344.38 195.056 344.209 196.305C344.038 197.554 343.679 199.833 343.43 201.378C343.165 202.923 342.854 204.781 342.745 205.514C342.62 206.248 342.34 207.622 342.122 208.558C341.904 209.495 341.732 210.416 341.732 210.587C341.717 210.759 341.841 211.024 341.997 211.165C342.153 211.321 342.402 211.446 342.558 211.446C342.698 211.446 342.916 211.29 343.041 211.103C343.165 210.9 343.492 209.869 343.757 208.792C344.038 207.715 344.318 206.529 344.396 206.139C344.474 205.749 344.645 204.906 344.77 204.266C344.894 203.626 345.097 202.502 345.237 201.768C345.362 201.034 345.58 199.661 345.704 198.724C345.829 197.788 346.031 196.227 346.172 195.29C346.296 194.354 346.468 193.042 346.561 192.403C346.639 191.763 346.779 190.389 346.873 189.359C346.951 188.328 347.106 186.393 347.215 185.066C347.309 183.739 347.402 181.632 347.402 180.383C347.402 178.776 347.34 178.011 347.184 177.73C347.075 177.511 346.904 177.293 346.81 177.23C346.717 177.168 346.592 177.105 346.53 177.105C346.468 177.105 346.312 177.215 346.187 177.339ZM340.206 216.878C340.034 217.112 339.536 218.455 339.084 219.875C338.632 221.295 337.994 223.293 337.651 224.324C337.324 225.354 336.903 226.493 336.732 226.868C336.576 227.227 336.436 227.57 336.436 227.648C336.436 227.711 336.296 228.117 336.124 228.538C335.969 228.975 335.501 230.162 335.096 231.192C334.691 232.222 334.24 233.377 334.099 233.767C333.944 234.158 333.585 235.063 333.274 235.797C332.978 236.53 332.448 237.763 332.074 238.528C331.716 239.293 331.28 240.245 331.109 240.635C330.937 241.026 329.925 243.102 328.865 245.24C327.806 247.394 326.778 249.424 326.576 249.767C326.373 250.11 325.968 250.844 325.657 251.406C325.361 251.968 324.956 252.67 324.784 252.967C324.597 253.263 324.239 253.903 323.974 254.372C323.725 254.84 323.304 255.589 323.071 256.011C322.822 256.448 322.479 257.01 322.323 257.291C322.167 257.556 321.529 258.571 320.906 259.554C320.298 260.522 319.192 262.223 318.444 263.347C317.697 264.471 316.45 266.282 315.672 267.374C314.877 268.467 313.475 270.403 312.541 271.667C311.606 272.931 310.78 274.024 310.702 274.118C310.625 274.211 310.422 274.445 310.251 274.664C310.064 274.882 309.347 275.757 308.662 276.615C307.961 277.474 306.948 278.707 306.388 279.347C305.842 279.987 305.032 280.939 304.596 281.438C304.16 281.953 303.381 282.828 302.867 283.39C302.353 283.951 301.278 285.122 300.468 285.981C299.658 286.839 297.789 288.743 296.34 290.195C294.876 291.662 292.836 293.645 291.807 294.597C290.779 295.549 289.627 296.611 289.237 296.97C288.848 297.329 288.489 297.61 288.427 297.61C288.349 297.61 288.116 297.875 287.898 298.203C287.633 298.577 287.539 298.905 287.586 299.139C287.633 299.327 287.835 299.53 288.038 299.576C288.225 299.623 288.583 299.561 288.848 299.436C289.113 299.295 289.658 298.89 290.078 298.515C290.499 298.14 291.029 297.672 291.262 297.454C291.496 297.235 292.867 295.939 294.3 294.566C295.748 293.192 297.633 291.366 298.506 290.492C299.362 289.633 300.624 288.338 301.309 287.604C301.995 286.886 303.085 285.7 303.724 284.982C304.363 284.264 305.064 283.483 305.282 283.249C305.5 283.03 305.951 282.5 306.294 282.078C306.637 281.672 307.447 280.72 308.086 279.987C308.724 279.253 309.456 278.363 309.706 278.02C309.97 277.676 310.251 277.333 310.329 277.239C310.422 277.146 310.998 276.49 311.606 275.757C312.213 275.023 313.039 273.977 313.444 273.415C313.833 272.853 314.223 272.338 314.285 272.244C314.363 272.151 314.628 271.807 314.877 271.448C315.126 271.105 315.563 270.512 315.843 270.122C316.123 269.747 316.466 269.294 316.575 269.123C316.7 268.951 317.011 268.514 317.276 268.155C317.525 267.78 317.743 267.452 317.743 267.406C317.743 267.359 317.884 267.171 318.055 266.984C318.226 266.781 318.662 266.157 319.021 265.579C319.395 265.002 319.94 264.159 320.251 263.706C320.563 263.253 321.217 262.27 321.7 261.521C322.183 260.756 322.572 260.116 322.572 260.069C322.572 260.022 322.759 259.757 322.977 259.492C323.211 259.211 323.585 258.586 323.834 258.118C324.083 257.65 324.675 256.619 325.158 255.855C325.641 255.09 326.155 254.2 326.295 253.903C326.451 253.607 326.903 252.717 327.323 251.952C327.728 251.187 328.118 250.485 328.18 250.391C328.258 250.298 329.146 248.581 330.158 246.551C331.171 244.538 332.152 242.54 332.339 242.103C332.526 241.681 332.916 240.807 333.211 240.167C333.507 239.527 333.975 238.544 334.24 237.982C334.504 237.42 334.722 236.92 334.722 236.858C334.722 236.78 334.972 236.202 335.268 235.562C335.564 234.922 335.813 234.345 335.813 234.282C335.813 234.204 336.031 233.627 336.296 232.987C336.561 232.347 337.028 231.145 337.324 230.333C337.62 229.522 337.978 228.538 338.103 228.148C338.227 227.758 338.43 227.211 338.554 226.946C338.679 226.665 338.773 226.369 338.773 226.275C338.773 226.181 338.928 225.744 339.131 225.307C339.333 224.854 339.614 224.058 339.769 223.543C339.925 223.028 340.19 222.294 340.33 221.904C340.486 221.514 340.766 220.671 340.953 220.031C341.14 219.391 341.358 218.657 341.436 218.392C341.514 218.127 341.576 217.752 341.576 217.534C341.576 217.315 341.467 216.987 341.343 216.8C341.218 216.597 340.969 216.441 340.813 216.441C340.642 216.441 340.361 216.628 340.206 216.878Z" fill="#0477BF"/>
</svg>
