<svg width="435" height="375" viewBox="0 0 435 375" fill="none" xmlns="http://www.w3.org/2000/svg">
<path fill-rule="evenodd" clip-rule="evenodd" d="M209.473 374.467C209.201 374.428 207.195 374.291 204.995 374.174C202.795 374.057 200.03 373.881 198.861 373.784C197.693 373.667 195.59 373.472 194.188 373.316C192.786 373.159 190.917 372.886 190.002 372.73C189.087 372.555 188.152 372.32 187.899 372.184C187.665 372.047 187.412 371.794 187.354 371.638C187.296 371.462 187.451 371.189 187.704 370.974C188.113 370.662 188.425 370.623 190.878 370.721C192.378 370.779 195.142 370.974 197.012 371.13C198.881 371.306 201.646 371.54 203.145 371.657C204.644 371.755 209.726 371.852 214.439 371.852C219.248 371.852 223.765 371.774 224.758 371.657C225.712 371.54 227.465 371.442 228.653 371.442C230.249 371.442 230.911 371.521 231.242 371.735C231.476 371.891 231.671 372.164 231.671 372.32C231.671 372.477 231.476 372.75 231.242 372.906C230.989 373.062 229.957 373.355 228.945 373.569C227.932 373.784 225.732 374.038 224.077 374.155C222.422 374.252 218.566 374.389 215.509 374.447C212.452 374.486 209.746 374.506 209.473 374.467ZM255.543 369.979C255.348 369.803 255.212 369.569 255.212 369.472C255.231 369.374 255.426 369.082 255.679 368.808C256.029 368.418 256.769 368.165 259.709 367.462C261.695 366.994 263.623 366.545 263.993 366.467C264.363 366.408 265.473 366.174 266.427 365.94C267.381 365.706 269.503 365.199 271.1 364.769C272.716 364.36 274.196 363.93 274.41 363.833C274.624 363.735 275.423 363.482 276.163 363.287C276.903 363.072 278.324 362.662 279.278 362.389C280.232 362.096 282.043 361.511 283.27 361.082C284.496 360.653 286.56 359.97 287.845 359.54C289.131 359.131 290.844 358.643 291.642 358.467C292.441 358.292 293.317 358.175 293.59 358.214C293.901 358.253 294.096 358.409 294.135 358.662C294.174 358.877 294.037 359.209 293.843 359.423C293.648 359.618 293.142 359.931 292.713 360.126C292.285 360.321 291.506 360.672 290.961 360.906C290.435 361.14 289.637 361.453 289.208 361.609C288.78 361.745 287.943 362.038 287.359 362.272C286.775 362.506 284.672 363.228 282.686 363.911C280.699 364.574 278.597 365.257 278.012 365.394C277.428 365.53 276.864 365.706 276.747 365.804C276.63 365.882 275.189 366.311 273.534 366.74C271.879 367.169 269.99 367.657 269.348 367.852C268.705 368.028 267.225 368.379 266.038 368.613C264.85 368.867 262.805 369.277 261.462 369.55C260.118 369.823 258.307 370.096 257.451 370.174C256.127 370.272 255.815 370.233 255.543 369.979ZM314.424 349.941C314.268 349.804 314.171 349.589 314.19 349.453C314.21 349.316 314.404 348.965 314.638 348.653C314.852 348.36 315.378 347.95 315.787 347.736C316.196 347.521 317.091 347.033 317.773 346.643C318.454 346.253 319.389 345.707 319.876 345.453C320.363 345.18 321.064 344.79 321.434 344.575C321.804 344.36 322.641 343.892 323.283 343.541C323.926 343.19 324.977 342.585 325.62 342.195C326.262 341.804 327.1 341.317 327.489 341.102C327.859 340.887 329.125 340.146 330.254 339.443C331.403 338.741 334.46 336.77 337.069 335.034C339.659 333.317 342.463 331.424 343.28 330.839C344.118 330.253 345.89 328.946 347.253 327.932C348.596 326.917 350.29 325.668 350.991 325.161C351.711 324.634 352.724 323.854 353.269 323.405C353.795 322.937 354.613 322.273 355.061 321.922C355.528 321.59 356.385 321.083 356.969 320.81C357.553 320.537 358.215 320.322 358.429 320.322C358.663 320.322 358.857 320.478 358.916 320.712C358.974 320.927 358.857 321.337 358.663 321.629C358.488 321.902 357.981 322.41 357.533 322.741C357.105 323.073 356.054 323.951 355.216 324.712C354.379 325.473 353.289 326.429 352.802 326.858C352.315 327.307 350.524 328.712 348.83 329.98C347.116 331.268 345.539 332.458 345.325 332.614C345.091 332.77 344.371 333.297 343.728 333.785C343.086 334.273 341.859 335.151 341.002 335.697C340.146 336.263 339.425 336.712 339.386 336.712C339.367 336.712 338.938 337.004 338.413 337.336C337.906 337.687 337.361 338.078 337.186 338.175C337.011 338.273 336.563 338.526 336.212 338.741C335.842 338.936 334.927 339.521 334.187 340.029C333.447 340.536 331.189 341.882 329.164 343.014C327.158 344.165 325.484 345.102 325.425 345.102C325.367 345.102 324.997 345.316 324.588 345.57C324.198 345.843 323.303 346.37 322.602 346.741C321.901 347.131 320.382 347.911 319.194 348.497C318.007 349.082 316.663 349.707 316.176 349.882C315.69 350.038 315.164 350.175 314.989 350.175C314.833 350.175 314.58 350.077 314.424 349.941ZM110.754 346.682C109.741 346.155 108.787 345.629 108.651 345.512C108.534 345.394 108.378 345.297 108.32 345.297C108.261 345.297 107.677 344.985 106.996 344.614C106.334 344.224 105.613 343.814 105.399 343.677C105.185 343.56 104.309 342.995 103.452 342.448C102.595 341.902 101.096 340.985 100.142 340.419C99.1683 339.834 96.8512 338.331 94.9819 337.043C93.1127 335.775 90.6009 334.058 89.4131 333.239C88.2254 332.419 85.8109 330.644 84.0585 329.317C82.3061 327.99 80.7678 326.8 80.6705 326.683C80.5537 326.566 80.0279 326.117 79.5022 325.688C78.957 325.258 77.964 324.439 77.263 323.834C76.562 323.249 75.9 322.663 75.7637 322.566C75.6469 322.468 75.1601 322.059 74.7123 321.688C74.2449 321.317 73.3493 320.517 72.6872 319.951C72.0447 319.366 71.2658 318.644 70.9348 318.351C70.6038 318.059 69.786 317.298 69.085 316.654C68.3841 316.01 66.1059 313.786 64.0225 311.698C61.9196 309.63 59.252 306.918 58.0643 305.688C56.896 304.459 54.9294 302.293 53.7222 300.908C52.4955 299.503 51.2298 298.059 50.8988 297.689C50.5678 297.318 49.3995 295.913 48.2897 294.567C47.1798 293.22 44.9795 290.391 43.3634 288.264C41.7668 286.157 40.4622 284.382 40.4622 284.323C40.4622 284.265 40.3843 284.109 40.2675 283.972C40.1701 283.855 39.878 283.484 39.6249 283.152C39.3718 282.821 38.4177 281.474 37.5025 280.128C36.5874 278.782 35.3802 276.987 34.8155 276.128C34.2314 275.27 33.6277 274.353 33.4525 274.08C33.2773 273.806 32.44 272.499 31.6027 271.153C30.7655 269.806 29.8698 268.324 29.5972 267.836C29.3246 267.348 28.9352 266.646 28.721 266.275C28.5068 265.904 28.1952 265.377 28.0589 265.104C27.9032 264.831 27.5722 264.265 27.2996 263.836C27.0464 263.407 26.7544 262.88 26.657 262.665C26.5596 262.451 26.2092 261.787 25.8587 261.202C25.5082 260.617 24.5736 258.86 23.7558 257.3C22.9575 255.739 21.8865 253.631 21.3803 252.617C20.874 251.602 20.1341 250.061 19.7252 249.202C19.3358 248.344 18.4012 246.236 17.6418 244.519C16.9019 242.802 16.1035 241.007 15.9088 240.52C15.6946 240.032 15.3831 239.407 15.2468 239.095C15.091 238.803 14.9547 238.471 14.9547 238.373C14.9547 238.276 14.8379 237.886 14.6821 237.534C14.5264 237.203 14.1759 236.344 13.9033 235.642C13.6307 234.939 13.2802 233.983 13.105 233.495C12.9297 233.008 12.2093 230.9 11.5083 228.813C10.8073 226.725 10.0285 224.169 9.77536 223.154C9.52224 222.14 9.30805 220.949 9.30805 220.52C9.28858 220.052 9.40541 219.642 9.60012 219.486C9.83378 219.291 9.97007 219.33 10.2816 219.642C10.4958 219.857 10.8268 220.403 11.0215 220.852C11.2357 221.32 11.5862 222.218 11.8199 222.862C12.073 223.505 12.3845 224.344 12.5598 224.715C12.7155 225.086 13.1439 226.374 13.4944 227.544C13.8449 228.715 14.3706 230.315 14.6627 231.056C14.9353 231.798 15.2663 232.734 15.3831 233.105C15.4805 233.476 15.6557 233.886 15.7336 233.983C15.8309 234.081 16.1425 234.842 16.4151 235.642C16.7071 236.442 17.0966 237.456 17.2913 237.885C17.486 238.315 17.8365 239.193 18.0701 239.837C18.3038 240.481 18.7127 241.495 18.9853 242.08C19.2579 242.666 19.55 243.329 19.6278 243.544C19.7057 243.758 20.0367 244.5 20.3678 245.202C20.6793 245.905 21.1466 246.958 21.3997 247.544C21.6334 248.129 21.9449 248.753 22.0812 248.91C22.237 249.066 22.3538 249.261 22.3538 249.339C22.3538 249.436 22.8406 250.529 23.4442 251.778C24.0284 253.046 24.6709 254.392 24.8656 254.763C25.0604 255.134 25.4303 255.836 25.7029 256.324C25.9755 256.812 26.6181 257.982 27.1243 258.958C27.6306 259.934 28.2147 260.948 28.4094 261.241C28.6041 261.553 28.7794 261.826 28.7794 261.885C28.7794 261.943 28.9352 262.216 29.1493 262.509C29.3441 262.821 29.9477 263.836 30.4734 264.812C31.0186 265.787 31.6417 266.919 31.8948 267.348C32.1284 267.777 32.5568 268.441 32.8489 268.811C33.141 269.182 33.5888 269.924 33.8419 270.47C34.1145 270.997 34.3676 271.484 34.4261 271.543C34.4845 271.602 35.166 272.577 35.9254 273.728C36.7042 274.899 37.3468 275.933 37.3468 276.031C37.3468 276.128 37.4052 276.245 37.4831 276.265C37.5804 276.304 38.0672 276.987 38.6124 277.787C39.1381 278.587 39.6249 279.289 39.6833 279.348C39.7417 279.406 40.5401 280.499 41.4552 281.787C42.3704 283.074 43.5581 284.752 44.0644 285.494C44.5901 286.235 45.2132 287.074 45.4858 287.347C45.7389 287.621 46.4204 288.46 46.9851 289.201C47.5497 289.942 48.1728 290.762 48.3675 290.996C48.5817 291.23 48.9517 291.699 49.2243 292.05C49.4969 292.401 50.0031 293.045 50.3536 293.474C50.7041 293.923 51.3077 294.664 51.7166 295.133C52.106 295.62 53.7416 297.513 55.3383 299.328C56.9349 301.162 59.2131 303.679 60.4008 304.908C61.5886 306.137 63.5357 308.108 64.704 309.298C65.8917 310.469 67.7805 312.322 68.8903 313.395C70.0197 314.469 72.0252 316.303 73.3687 317.473C74.7123 318.664 75.9 319.717 76.0168 319.815C76.1337 319.932 76.601 320.342 77.0683 320.712C77.5161 321.083 78.6065 322 79.4827 322.741C80.3395 323.483 82.6371 325.278 84.5647 326.722C86.4924 328.166 88.2059 329.473 88.3617 329.629C88.5174 329.785 89.2963 330.351 90.0946 330.917C90.8735 331.483 91.7302 332.068 91.9639 332.224C92.217 332.38 93.0543 332.946 93.8526 333.492C94.6314 334.019 95.3129 334.527 95.3714 334.585C95.4298 334.644 96.1891 335.209 97.0653 335.814C97.961 336.419 98.7204 336.907 98.7788 336.907C98.8372 336.907 99.8692 337.551 101.057 338.331C102.264 339.131 103.608 339.97 104.036 340.204C104.464 340.439 105.341 340.985 105.983 341.414C106.626 341.824 107.288 342.234 107.444 342.312C107.599 342.37 107.872 342.546 108.028 342.682C108.183 342.799 108.631 343.092 109.001 343.287C109.371 343.502 110.462 344.107 111.396 344.634C112.37 345.18 113.324 345.863 113.597 346.214C113.85 346.565 114.044 347.014 114.005 347.19C113.986 347.443 113.752 347.56 113.285 347.58C112.798 347.619 112.097 347.365 110.754 346.682ZM373.909 306.332C373.811 306.274 373.753 305.981 373.773 305.708C373.792 305.435 374.045 304.83 374.337 304.381C374.649 303.932 375.447 302.918 376.148 302.118C376.849 301.337 377.9 300.128 378.485 299.445C379.069 298.762 380.218 297.454 381.035 296.537C381.834 295.62 383.508 293.591 384.735 292.03C385.962 290.469 387.928 287.933 389.096 286.372C390.265 284.811 391.861 282.626 392.64 281.494C393.419 280.362 395.288 277.631 396.788 275.387C398.287 273.162 399.514 271.309 399.514 271.25C399.514 271.192 399.728 270.86 400 270.509C400.254 270.177 400.487 269.826 400.487 269.728C400.487 269.65 400.799 269.104 401.169 268.519C401.539 267.933 401.85 267.407 401.85 267.348C401.85 267.289 402.142 266.782 402.493 266.216C402.863 265.67 403.486 264.577 403.895 263.836C404.284 263.094 404.81 262.119 405.063 261.69C405.297 261.26 405.686 260.558 405.939 260.129C406.192 259.699 406.913 258.334 407.555 257.104C408.198 255.875 409.152 253.983 409.678 252.909C410.203 251.836 410.807 250.646 411.002 250.275C411.216 249.905 411.372 249.475 411.391 249.339C411.391 249.222 411.547 248.871 411.742 248.558C411.936 248.266 412.851 246.315 413.767 244.227C414.701 242.139 415.811 239.446 416.239 238.276C416.687 237.105 417.116 235.954 417.213 235.739C417.31 235.525 417.895 233.983 418.498 232.325C419.121 230.666 419.764 228.852 419.958 228.325C420.153 227.778 420.659 226.315 421.107 225.047C421.536 223.798 422.081 222.179 422.276 221.437C422.47 220.715 422.977 219.037 423.385 217.691C423.775 216.345 424.846 212.364 425.741 208.813C426.637 205.262 427.552 201.496 427.767 200.423C427.981 199.35 428.351 197.34 428.623 195.936C428.876 194.531 429.188 192.658 429.305 191.741C429.441 190.823 429.558 190.043 429.597 189.984C429.636 189.926 429.85 188.619 430.084 187.058C430.317 185.497 430.59 183.487 430.687 182.57C430.785 181.653 431.057 179.858 431.291 178.57C431.544 177.302 431.855 176.131 431.972 175.995C432.109 175.858 432.401 175.741 432.615 175.741C432.829 175.741 433.16 175.975 433.335 176.268C433.608 176.736 433.647 177.087 433.53 178.57C433.452 179.546 433.199 181.634 433.004 183.253C432.79 184.853 432.576 186.394 432.518 186.668C432.459 186.941 432.284 188.131 432.128 189.302C431.972 190.472 431.719 192.228 431.544 193.204C431.388 194.179 431.116 195.623 430.96 196.423C430.804 197.223 430.551 198.55 430.395 199.35C430.239 200.15 429.753 202.394 429.305 204.326C428.857 206.257 428.37 208.403 428.214 209.106C428.059 209.808 427.552 211.818 427.085 213.594C426.618 215.369 425.936 217.867 425.547 219.154C425.157 220.442 424.32 223.076 423.678 225.008C423.035 226.939 422.198 229.437 421.808 230.569C421.399 231.7 420.913 232.988 420.718 233.437C420.523 233.905 420.348 234.373 420.348 234.471C420.348 234.569 420.231 234.959 420.075 235.29C419.92 235.642 419.511 236.637 419.18 237.495C418.849 238.354 418.498 239.232 418.42 239.446C418.323 239.661 418.148 240.09 418.011 240.422C417.875 240.754 417.466 241.749 417.096 242.666C416.726 243.583 416.278 244.637 416.123 245.007C415.947 245.378 415.5 246.354 415.13 247.154C414.76 247.953 414.234 249.105 413.981 249.69C413.708 250.275 412.579 252.656 411.45 254.958C410.32 257.261 408.938 259.934 408.354 260.909C407.789 261.885 407.244 262.88 407.127 263.153C407.01 263.426 406.699 263.992 406.426 264.421C406.153 264.851 405.842 265.397 405.744 265.631C405.628 265.885 405.063 266.86 404.479 267.836C403.895 268.811 403.408 269.65 403.408 269.728C403.408 269.826 403.174 270.177 402.921 270.509C402.648 270.86 402.434 271.211 402.434 271.289C402.415 271.387 402.123 271.855 401.753 272.363C401.383 272.889 401.071 273.338 401.071 273.397C401.071 273.455 400.623 274.177 400.059 274.997C399.514 275.836 398.676 277.084 398.228 277.787C397.761 278.489 396.807 279.914 396.067 280.987C395.347 282.04 393.711 284.323 392.465 286.06C391.219 287.777 389.544 290.021 388.765 291.035C387.987 292.03 386.39 294.001 385.222 295.425C384.053 296.83 382.788 298.332 382.418 298.762C382.048 299.191 380.412 300.928 378.796 302.625C377.18 304.323 375.564 305.883 375.213 306.098C374.882 306.293 374.473 306.469 374.337 306.469C374.181 306.469 374.006 306.41 373.909 306.332ZM0.643303 162.61C0.468061 162.356 0.25388 161.322 0.137052 160.132C0.000753 158.805 -0.0381897 155.546 0.0396957 150.864C0.117581 146.278 0.31229 142.044 0.545946 139.254C0.760131 136.835 1.07167 133.635 1.24692 132.133C1.40269 130.63 1.67529 128.484 1.81159 127.352C1.96736 126.221 2.18154 124.64 2.29837 123.84C2.39573 123.04 2.6878 121.362 2.90198 120.133C3.13564 118.904 3.52506 116.796 3.77819 115.45C4.05079 114.104 4.40127 112.387 4.55705 111.645C4.73229 110.904 5.04383 109.538 5.23854 108.621C5.45273 107.704 5.78374 106.299 5.97846 105.499C6.19264 104.699 6.44577 103.646 6.5626 103.158C6.67942 102.67 7.12726 100.914 7.5751 99.2555C8.00347 97.597 8.50973 95.9971 8.68497 95.6849C8.95757 95.2556 9.15228 95.1581 9.73642 95.1581C10.3011 95.1581 10.5347 95.2556 10.6905 95.5873C10.8463 95.919 10.8463 96.2507 10.71 96.8165C10.5932 97.2458 10.2427 98.397 9.93113 99.3531C9.61959 100.309 9.17175 101.948 8.9381 102.963C8.70444 103.977 8.29554 105.792 8.02295 106.963C7.76982 108.133 7.41933 109.636 7.26356 110.28C7.12726 110.923 6.81572 112.289 6.60154 113.304C6.36788 114.318 6.05634 115.821 5.8811 116.621C5.72533 117.421 5.41378 119.06 5.21907 120.23C5.00488 121.401 4.73229 123.079 4.63493 123.938C4.5181 124.796 4.30392 126.24 4.14815 127.157C3.99238 128.074 3.68083 130.357 3.46665 132.23C3.25247 134.103 2.99934 136.737 2.88251 138.084C2.78515 139.43 2.60991 141.927 2.49308 143.644C2.37626 145.361 2.22049 150.181 2.12313 154.376C2.0063 160.21 1.88948 162.122 1.69476 162.532C1.53899 162.824 1.30533 163.058 1.1885 163.058C1.0522 163.058 0.818545 162.863 0.643303 162.61ZM432.732 152.815C432.556 152.659 432.381 152.23 432.323 151.878C432.284 151.547 432.148 150.239 432.031 149.01C431.933 147.781 431.739 145.108 431.641 143.059C431.524 141.01 431.31 138.337 431.155 137.108C431.018 135.879 430.824 134.201 430.765 133.401C430.687 132.601 430.473 130.669 430.259 129.108C430.045 127.547 429.597 124.699 429.285 122.767C428.954 120.835 428.565 118.513 428.429 117.596C428.273 116.679 427.922 114.962 427.65 113.792C427.377 112.621 427.163 111.47 427.163 111.255C427.143 111.04 427.299 110.709 427.494 110.533C427.689 110.338 428 110.182 428.195 110.182C428.37 110.182 428.643 110.377 428.798 110.611C428.954 110.865 429.363 112.153 429.694 113.499C430.045 114.845 430.395 116.328 430.493 116.816C430.59 117.304 430.804 118.357 430.96 119.157C431.116 119.957 431.369 121.362 431.544 122.279C431.7 123.196 431.972 124.913 432.128 126.084C432.284 127.255 432.537 129.206 432.712 130.377C432.868 131.547 433.082 133.186 433.199 133.986C433.296 134.786 433.472 136.503 433.588 137.791C433.686 139.079 433.881 141.498 434.017 143.157C434.134 144.815 434.25 147.449 434.25 149.01C434.25 151.02 434.173 151.976 433.978 152.327C433.842 152.6 433.627 152.873 433.511 152.951C433.394 153.03 433.238 153.108 433.16 153.108C433.082 153.108 432.887 152.971 432.732 152.815ZM425.255 103.392C425.041 103.099 424.417 101.421 423.853 99.6457C423.288 97.8702 422.49 95.3727 422.061 94.0849C421.653 92.7971 421.127 91.3728 420.913 90.9045C420.718 90.4558 420.543 90.0265 420.543 89.929C420.543 89.8509 420.367 89.3436 420.153 88.8168C419.959 88.2704 419.374 86.7876 418.868 85.4998C418.362 84.2121 417.797 82.7682 417.622 82.2804C417.427 81.7926 416.979 80.6609 416.59 79.7439C416.22 78.8268 415.558 77.2854 415.091 76.3293C414.643 75.3733 414.098 74.1831 413.883 73.6953C413.669 73.2075 412.404 70.6125 411.08 67.9394C409.756 65.2468 408.47 62.7102 408.217 62.281C407.964 61.8517 407.458 60.9347 407.068 60.2323C406.699 59.5299 406.192 58.6518 405.978 58.2811C405.744 57.9104 405.297 57.1104 404.966 56.5251C404.654 55.9397 404.128 55.0032 403.836 54.4763C403.525 53.93 403.096 53.2276 402.902 52.8764C402.707 52.5447 401.909 51.2764 401.13 50.0472C400.37 48.8375 398.988 46.7107 398.053 45.3059C397.119 43.901 395.561 41.6377 394.587 40.2719C393.594 38.9061 391.842 36.4867 390.674 34.9062C389.505 33.3258 388.473 31.96 388.376 31.8429C388.279 31.7259 388.025 31.4332 387.811 31.16C387.578 30.8868 386.682 29.7942 385.825 28.7211C384.949 27.6479 383.683 26.1065 382.982 25.3065C382.301 24.5066 381.288 23.3163 380.743 22.692C380.198 22.0481 379.224 20.9554 378.582 20.253C377.939 19.5506 376.596 18.0873 375.583 17.0141C374.571 15.941 372.234 13.5606 370.423 11.746C368.593 9.91188 366.042 7.43383 364.757 6.24362C363.472 5.05341 362.031 3.72669 361.545 3.27792C361.058 2.82916 360.61 2.47797 360.532 2.47797C360.435 2.47797 360.143 2.14626 359.87 1.73651C359.539 1.26823 359.422 0.858501 359.481 0.565826C359.539 0.331687 359.792 0.078005 360.045 0.0194702C360.279 -0.0390646 360.727 0.038945 361.058 0.195038C361.389 0.370642 362.07 0.878004 362.596 1.34628C363.122 1.81456 363.784 2.39993 364.076 2.6731C364.368 2.94626 366.081 4.56569 367.873 6.28271C369.684 7.99974 372.04 10.2826 373.13 11.3752C374.201 12.4484 375.778 14.0678 376.635 14.9849C377.492 15.8824 378.855 17.3653 379.653 18.2628C380.451 19.1604 381.327 20.136 381.6 20.4286C381.873 20.7018 382.437 21.3652 382.866 21.892C383.294 22.3993 384.307 23.5895 385.105 24.5066C385.903 25.4236 386.818 26.5358 387.13 26.965C387.461 27.3943 387.811 27.8235 387.909 27.9406C388.026 28.0577 388.746 28.8771 389.505 29.7942C390.265 30.7112 391.297 32.0185 391.803 32.7209C392.29 33.4234 392.777 34.0672 392.854 34.1843C392.952 34.3013 393.283 34.7306 393.594 35.1794C393.906 35.6086 394.451 36.3501 394.802 36.8379C395.152 37.3061 395.58 37.872 395.717 38.0866C395.872 38.3012 396.262 38.8476 396.593 39.2964C396.904 39.7646 397.177 40.1743 397.177 40.2329C397.177 40.2914 397.352 40.5256 397.566 40.7597C397.781 41.0134 398.326 41.7938 398.774 42.5157C399.241 43.2377 399.923 44.2913 400.312 44.8571C400.701 45.423 401.519 46.6522 402.123 47.5888C402.726 48.5448 403.213 49.3448 403.213 49.4033C403.213 49.4619 403.447 49.7936 403.719 50.1253C404.011 50.4765 404.479 51.2569 404.79 51.8423C405.102 52.4276 405.842 53.7154 406.445 54.6714C407.049 55.6275 407.692 56.7397 407.867 57.1104C408.062 57.4811 408.626 58.5933 409.152 59.5494C409.658 60.5054 410.145 61.3834 410.223 61.5005C410.32 61.6176 411.43 63.7639 412.696 66.3004C413.961 68.8174 415.188 71.3149 415.422 71.8612C415.655 72.388 416.142 73.4807 416.512 74.2806C416.882 75.0806 417.466 76.3099 417.797 77.0123C418.128 77.7147 418.401 78.3391 418.401 78.4171C418.401 78.5147 418.712 79.2366 419.082 80.0366C419.452 80.8365 419.764 81.5585 419.764 81.6365C419.764 81.7341 420.036 82.456 420.367 83.256C420.698 84.056 421.283 85.5583 421.652 86.5729C422.022 87.5875 422.47 88.8168 422.626 89.3046C422.782 89.7924 423.035 90.4753 423.191 90.807C423.347 91.1582 423.463 91.5289 423.463 91.646C423.463 91.763 423.658 92.3094 423.911 92.8557C424.164 93.4215 424.515 94.4166 424.71 95.0605C424.904 95.7044 425.235 96.6214 425.41 97.1092C425.605 97.597 425.956 98.6506 426.189 99.4506C426.423 100.251 426.696 101.168 426.793 101.499C426.89 101.831 426.968 102.299 426.968 102.572C426.968 102.846 426.832 103.255 426.676 103.49C426.52 103.743 426.209 103.938 426.014 103.938C425.8 103.938 425.449 103.704 425.255 103.392Z" fill="#CFFF04"/>
</svg>
