<svg width="290" height="245" viewBox="0 0 290 245" fill="none" xmlns="http://www.w3.org/2000/svg">
<path fill-rule="evenodd" clip-rule="evenodd" d="M182.928 244.625C183.291 244.56 183.72 244.443 183.862 244.378C184.005 244.313 184.226 244.248 184.356 244.248C184.473 244.248 185.251 244.04 186.069 243.792C186.887 243.532 187.796 243.259 188.081 243.194C188.367 243.116 188.782 242.986 188.99 242.882C189.211 242.791 189.963 242.531 190.677 242.297C191.391 242.075 192.092 241.841 192.235 241.789C192.378 241.724 192.819 241.555 193.209 241.412C193.598 241.256 194.104 241.1 194.312 241.048C194.533 240.996 194.766 240.918 194.831 240.866C194.909 240.814 195.338 240.645 195.805 240.475C196.272 240.306 197.466 239.851 198.466 239.461C199.466 239.071 200.374 238.706 200.478 238.654C200.582 238.602 201.049 238.394 201.517 238.199C201.984 238.004 202.594 237.744 202.88 237.614C203.165 237.484 204.243 236.963 205.281 236.469C206.579 235.832 207.28 235.428 207.527 235.116C207.734 234.882 207.877 234.596 207.851 234.492C207.812 234.349 207.631 234.297 207.098 234.31C206.592 234.323 206.112 234.453 205.476 234.752C204.982 234.986 204.1 235.389 203.529 235.663C202.957 235.923 202.282 236.235 202.036 236.352C201.789 236.456 201.322 236.664 200.997 236.807C200.673 236.95 200.063 237.184 199.634 237.341C199.206 237.51 198.687 237.705 198.466 237.796C198.258 237.887 197.752 238.082 197.363 238.225C196.973 238.381 196.155 238.68 195.545 238.915C194.935 239.149 194.325 239.383 194.182 239.448C194.039 239.513 193.663 239.643 193.339 239.76C193.014 239.864 192.001 240.215 191.067 240.527C190.145 240.827 188.626 241.321 187.692 241.607C186.77 241.906 185.485 242.297 184.836 242.492C184.2 242.674 183.174 243.012 182.564 243.233C181.954 243.454 181.305 243.74 181.11 243.87C180.868 244.035 180.76 244.213 180.786 244.404C180.812 244.677 180.89 244.703 181.526 244.729C181.915 244.729 182.551 244.69 182.928 244.625ZM79.8849 233.295C79.9888 233.204 80.0537 233.061 80.0407 232.97C80.0277 232.879 79.8979 232.645 79.7421 232.437C79.5993 232.242 79.2488 231.968 78.9762 231.825C78.7036 231.682 78.1065 231.357 77.6522 231.097C77.1978 230.837 76.5748 230.472 76.2502 230.303C75.9257 230.121 75.4584 229.861 75.2118 229.718C74.9651 229.575 74.4069 229.263 73.9786 229.029C73.5502 228.794 72.8492 228.391 72.4208 228.131C71.9925 227.871 71.4343 227.546 71.1747 227.403C70.928 227.26 70.0843 226.765 69.3314 226.297C68.5655 225.829 66.5275 224.515 64.7881 223.357C63.0616 222.212 61.1923 220.951 60.6471 220.56C60.0889 220.17 58.9077 219.299 57.999 218.622C57.1033 217.946 55.974 217.113 55.5067 216.775C55.0264 216.424 54.3514 215.904 53.9879 215.605C53.6374 215.292 53.0922 214.85 52.7936 214.616C52.4821 214.395 51.9109 214.057 51.5215 213.874C51.1321 213.692 50.6907 213.549 50.5479 213.549C50.3922 213.549 50.2623 213.653 50.2234 213.809C50.1845 213.953 50.2624 214.226 50.3922 214.421C50.509 214.603 50.8465 214.941 51.1451 215.162C51.4306 215.383 52.1316 215.969 52.6898 216.476C53.248 216.983 53.9749 217.621 54.2994 217.907C54.6239 218.206 55.8182 219.143 56.9476 219.988C58.0899 220.847 59.1413 221.64 59.2841 221.744C59.4399 221.848 59.9202 222.199 60.3486 222.525C60.7769 222.85 61.5947 223.435 62.1659 223.799C62.7371 224.177 63.2174 224.476 63.2433 224.476C63.2563 224.476 63.5419 224.671 63.8924 224.892C64.2299 225.126 64.5933 225.386 64.7102 225.451C64.827 225.516 65.1255 225.686 65.3592 225.829C65.6058 225.959 66.2159 226.349 66.7092 226.687C67.2025 227.025 68.7083 227.923 70.0583 228.677C71.3953 229.445 72.5117 230.069 72.5506 230.069C72.5896 230.069 72.8362 230.212 73.1088 230.381C73.3685 230.564 73.9656 230.915 74.4329 231.162C74.9002 231.422 75.9127 231.942 76.7046 232.333C77.4964 232.723 78.3921 233.139 78.7166 233.256C79.0411 233.36 79.3916 233.451 79.5085 233.451C79.6123 233.451 79.7811 233.386 79.8849 233.295ZM215.666 231.123C216.341 230.772 216.977 230.42 217.068 230.342C217.146 230.264 217.249 230.199 217.288 230.199C217.327 230.199 217.717 229.991 218.171 229.744C218.612 229.484 219.093 229.211 219.236 229.12C219.378 229.042 219.962 228.664 220.534 228.3C221.105 227.936 222.104 227.325 222.74 226.947C223.389 226.557 224.934 225.555 226.18 224.697C227.427 223.851 229.101 222.707 229.893 222.16C230.685 221.614 232.294 220.43 233.463 219.546C234.631 218.661 235.656 217.868 235.721 217.79C235.799 217.712 236.15 217.413 236.5 217.126C236.864 216.84 237.526 216.294 237.993 215.891C238.46 215.5 238.902 215.11 238.993 215.045C239.07 214.98 239.395 214.707 239.694 214.46C240.005 214.213 240.602 213.679 241.044 213.302C241.472 212.912 241.991 212.431 242.212 212.235C242.432 212.04 242.978 211.533 243.445 211.104C243.912 210.675 245.431 209.192 246.82 207.8C248.222 206.421 250 204.613 250.792 203.793C251.571 202.974 252.882 201.53 253.687 200.607C254.505 199.67 255.349 198.707 255.569 198.46C255.79 198.213 256.569 197.277 257.309 196.379C258.049 195.481 259.515 193.595 260.593 192.177C261.657 190.773 262.527 189.589 262.527 189.55C262.527 189.511 262.579 189.407 262.657 189.316C262.722 189.238 262.916 188.991 263.085 188.769C263.254 188.548 263.89 187.651 264.5 186.753C265.11 185.856 265.915 184.659 266.292 184.087C266.681 183.514 267.083 182.903 267.2 182.721C267.317 182.539 267.875 181.667 268.433 180.77C268.992 179.872 269.589 178.883 269.77 178.558C269.952 178.233 270.212 177.765 270.355 177.518C270.497 177.271 270.705 176.919 270.796 176.737C270.9 176.555 271.12 176.178 271.302 175.892C271.471 175.606 271.666 175.254 271.731 175.111C271.795 174.968 272.029 174.526 272.263 174.136C272.496 173.745 273.119 172.575 273.665 171.534C274.197 170.493 274.911 169.089 275.248 168.412C275.586 167.736 276.079 166.708 276.352 166.136C276.611 165.563 277.234 164.159 277.741 163.014C278.234 161.869 278.766 160.673 278.896 160.347C279.039 160.022 279.246 159.606 279.337 159.398C279.441 159.203 279.532 158.982 279.532 158.916C279.532 158.851 279.61 158.591 279.714 158.357C279.818 158.136 280.051 157.564 280.233 157.095C280.415 156.627 280.648 155.99 280.765 155.665C280.882 155.339 281.362 153.934 281.83 152.543C282.297 151.151 282.816 149.447 282.985 148.77C283.154 148.094 283.297 147.301 283.297 147.014C283.31 146.702 283.232 146.429 283.102 146.325C282.946 146.195 282.855 146.221 282.648 146.429C282.505 146.572 282.284 146.936 282.154 147.235C282.011 147.548 281.778 148.146 281.622 148.575C281.453 149.005 281.246 149.564 281.129 149.811C281.025 150.058 280.739 150.917 280.506 151.697C280.272 152.478 279.922 153.544 279.727 154.039C279.545 154.533 279.324 155.157 279.246 155.404C279.182 155.652 279.065 155.925 279.013 155.99C278.948 156.055 278.74 156.562 278.559 157.095C278.364 157.629 278.104 158.305 277.974 158.591C277.845 158.877 277.611 159.463 277.455 159.892C277.299 160.321 277.027 160.998 276.845 161.388C276.663 161.778 276.469 162.22 276.417 162.364C276.365 162.507 276.144 163.001 275.923 163.469C275.716 163.937 275.404 164.64 275.235 165.03C275.08 165.42 274.872 165.837 274.781 165.941C274.677 166.045 274.599 166.175 274.599 166.227C274.599 166.292 274.275 167.02 273.872 167.853C273.483 168.698 273.055 169.596 272.925 169.843C272.795 170.09 272.548 170.558 272.367 170.884C272.185 171.209 271.756 171.989 271.419 172.64C271.081 173.29 270.692 173.967 270.562 174.162C270.432 174.37 270.316 174.552 270.316 174.591C270.316 174.63 270.212 174.812 270.069 175.007C269.939 175.215 269.537 175.892 269.186 176.542C268.823 177.192 268.407 177.947 268.239 178.233C268.083 178.519 267.797 178.962 267.603 179.209C267.408 179.456 267.109 179.95 266.941 180.314C266.759 180.666 266.59 180.991 266.551 181.03C266.512 181.069 266.058 181.719 265.552 182.487C265.032 183.267 264.604 183.957 264.604 184.022C264.604 184.087 264.565 184.165 264.513 184.178C264.448 184.204 264.124 184.659 263.76 185.192C263.41 185.726 263.085 186.194 263.046 186.233C263.007 186.272 262.475 187 261.865 187.859C261.255 188.717 260.463 189.836 260.126 190.33C259.775 190.825 259.36 191.384 259.178 191.566C259.009 191.748 258.555 192.308 258.178 192.802C257.802 193.296 257.387 193.842 257.257 193.999C257.114 194.155 256.867 194.467 256.686 194.701C256.504 194.935 256.166 195.364 255.933 195.651C255.699 195.95 255.297 196.444 255.024 196.756C254.764 197.081 253.674 198.343 252.61 199.553C251.545 200.776 250.026 202.454 249.235 203.273C248.443 204.093 247.145 205.406 246.366 206.2C245.574 206.98 244.315 208.216 243.575 208.932C242.822 209.647 241.485 210.87 240.589 211.65C239.694 212.444 238.902 213.146 238.824 213.211C238.746 213.289 238.434 213.562 238.123 213.809C237.824 214.057 237.097 214.668 236.513 215.162C235.942 215.657 234.41 216.853 233.125 217.816C231.84 218.778 230.698 219.65 230.594 219.754C230.49 219.858 229.971 220.235 229.439 220.613C228.919 220.99 228.348 221.38 228.192 221.484C228.024 221.588 227.465 221.965 226.933 222.33C226.414 222.681 225.96 223.019 225.921 223.058C225.882 223.097 225.376 223.474 224.791 223.877C224.194 224.281 223.688 224.606 223.649 224.606C223.61 224.606 222.922 225.035 222.13 225.555C221.325 226.089 220.43 226.648 220.144 226.804C219.859 226.96 219.274 227.325 218.846 227.611C218.418 227.884 217.976 228.157 217.873 228.209C217.769 228.248 217.587 228.365 217.483 228.456C217.379 228.534 217.081 228.729 216.834 228.859C216.587 229.003 215.86 229.406 215.237 229.757C214.588 230.121 213.952 230.577 213.771 230.811C213.602 231.045 213.472 231.344 213.498 231.461C213.511 231.63 213.667 231.708 213.978 231.721C214.303 231.747 214.77 231.578 215.666 231.123ZM40.2281 204.223C40.293 204.184 40.3319 203.989 40.3189 203.806C40.306 203.624 40.1372 203.221 39.9425 202.922C39.7348 202.623 39.2026 201.946 38.7353 201.413C38.2679 200.893 37.567 200.086 37.1776 199.631C36.7881 199.176 36.0222 198.304 35.477 197.693C34.9448 197.081 33.8285 195.729 33.0107 194.688C32.1929 193.647 30.8818 191.956 30.1029 190.916C29.3241 189.875 28.2596 188.418 27.7404 187.664C27.2211 186.909 25.975 185.088 24.9755 183.592C23.9759 182.109 23.1581 180.874 23.1581 180.835C23.1581 180.796 23.0153 180.574 22.8336 180.34C22.6648 180.119 22.5091 179.885 22.5091 179.82C22.5091 179.768 22.3014 179.404 22.0547 179.014C21.8081 178.623 21.6004 178.272 21.6004 178.233C21.6004 178.194 21.4057 177.856 21.172 177.479C20.9254 177.114 20.51 176.386 20.2374 175.892C19.9778 175.397 19.6273 174.747 19.4585 174.461C19.3028 174.175 19.0431 173.706 18.8744 173.42C18.7056 173.134 18.2253 172.223 17.797 171.404C17.3686 170.584 16.7325 169.323 16.382 168.607C16.0316 167.892 15.6292 167.098 15.4994 166.851C15.3566 166.604 15.2527 166.318 15.2397 166.227C15.2397 166.149 15.1359 165.915 15.0061 165.707C14.8763 165.511 14.2662 164.211 13.6561 162.819C13.033 161.427 12.2931 159.632 12.0075 158.851C11.7089 158.071 11.4233 157.304 11.3584 157.16C11.2935 157.017 10.9041 155.99 10.5017 154.884C10.0863 153.778 9.65792 152.569 9.52811 152.217C9.3983 151.853 9.0608 150.878 8.76224 150.032C8.47666 149.2 8.11321 148.12 7.9834 147.626C7.85359 147.144 7.51604 146.026 7.24344 145.128C6.98382 144.231 6.26988 141.577 5.67276 139.21C5.07564 136.842 4.46551 134.332 4.32272 133.616C4.17993 132.901 3.93332 131.561 3.75159 130.624C3.58283 129.688 3.37513 128.439 3.29724 127.828C3.20637 127.216 3.1285 126.696 3.10254 126.657C3.07658 126.618 2.93379 125.747 2.77802 124.706C2.62224 123.665 2.44048 122.326 2.37558 121.714C2.31068 121.103 2.12898 119.906 1.97321 119.048C1.80445 118.202 1.59675 117.422 1.51886 117.331C1.42799 117.239 1.23328 117.161 1.09048 117.161C0.947694 117.161 0.727028 117.318 0.610199 117.513C0.428466 117.825 0.402491 118.059 0.480377 119.048C0.532301 119.698 0.701062 121.09 0.830872 122.169C0.973662 123.236 1.11645 124.264 1.1554 124.446C1.19434 124.628 1.31116 125.421 1.41501 126.202C1.51886 126.982 1.68761 128.153 1.80444 128.803C1.90829 129.454 2.09003 130.416 2.19388 130.95C2.29773 131.483 2.46646 132.368 2.57031 132.901C2.67416 133.434 2.99868 134.93 3.29724 136.218C3.5958 137.506 3.92035 138.936 4.0242 139.405C4.12805 139.873 4.46553 141.213 4.77707 142.397C5.08861 143.58 5.54296 145.245 5.80258 146.104C6.0622 146.962 6.62036 148.718 7.04874 150.006C7.47711 151.294 8.0353 152.959 8.29492 153.713C8.56752 154.468 8.89204 155.326 9.02185 155.626C9.15166 155.938 9.26849 156.25 9.26849 156.315C9.26849 156.38 9.34638 156.64 9.45023 156.861C9.55407 157.095 9.82666 157.759 10.0473 158.331C10.268 158.903 10.5017 159.489 10.5536 159.632C10.6185 159.775 10.7353 160.061 10.8262 160.282C10.9171 160.503 11.1897 161.167 11.4363 161.778C11.6829 162.39 11.9815 163.092 12.0854 163.339C12.2022 163.586 12.5008 164.237 12.7474 164.77C12.994 165.303 13.3445 166.071 13.5132 166.461C13.695 166.851 14.4479 168.438 15.2008 169.973C15.9537 171.508 16.8753 173.29 17.2648 173.941C17.6412 174.591 18.0047 175.254 18.0826 175.436C18.1604 175.619 18.3681 175.996 18.5499 176.282C18.7316 176.568 18.9393 176.932 19.0042 177.088C19.0821 177.257 19.4585 177.908 19.848 178.558C20.2374 179.209 20.5619 179.768 20.5619 179.82C20.5619 179.885 20.7177 180.119 20.8864 180.34C21.0682 180.574 21.211 180.809 21.211 180.861C21.2239 180.926 21.4187 181.238 21.6653 181.576C21.912 181.927 22.1196 182.226 22.1196 182.265C22.1196 182.305 22.4182 182.786 22.7946 183.332C23.1581 183.891 23.7163 184.724 24.0149 185.192C24.3264 185.661 24.9625 186.61 25.4557 187.326C25.936 188.028 27.0264 189.55 27.8572 190.708C28.688 191.852 29.8044 193.348 30.3236 194.025C30.8428 194.688 31.9073 196.002 32.6861 196.951C33.465 197.888 34.3088 198.889 34.5554 199.176C34.802 199.462 35.8924 200.62 36.9698 201.751C38.0473 202.883 39.1247 203.924 39.3584 204.067C39.579 204.197 39.8516 204.314 39.9425 204.314C40.0464 204.314 40.1632 204.275 40.2281 204.223ZM289.073 108.407C289.19 108.238 289.333 107.549 289.411 106.755C289.501 105.871 289.527 103.698 289.475 100.576C289.424 97.5196 289.294 94.6969 289.138 92.8368C288.995 91.2238 288.788 89.0905 288.671 88.0889C288.567 87.0873 288.385 85.6565 288.294 84.902C288.19 84.1476 288.048 83.0939 287.97 82.5606C287.905 82.0273 287.71 80.9086 287.567 80.0891C287.412 79.2696 287.152 77.8648 286.983 76.9673C286.801 76.0697 286.568 74.9251 286.464 74.4308C286.347 73.9365 286.139 73.0259 286.01 72.4145C285.867 71.8032 285.646 70.8666 285.516 70.3333C285.374 69.8 285.205 69.0975 285.127 68.7724C285.049 68.4472 284.75 67.2765 284.452 66.1708C284.166 65.0651 283.829 63.9985 283.712 63.7904C283.53 63.5042 283.4 63.4391 283.011 63.4391C282.635 63.4391 282.479 63.5042 282.375 63.7253C282.271 63.9465 282.271 64.1676 282.362 64.5448C282.44 64.831 282.673 65.5984 282.881 66.2358C283.089 66.8732 283.387 67.9659 283.543 68.6423C283.699 69.3187 283.972 70.5284 284.153 71.3089C284.322 72.0893 284.556 73.0909 284.66 73.5202C284.75 73.9495 284.958 74.86 285.101 75.5364C285.257 76.2128 285.464 77.2144 285.581 77.7477C285.685 78.2811 285.893 79.3737 286.023 80.1542C286.165 80.9347 286.347 82.0533 286.412 82.6257C286.49 83.198 286.633 84.1606 286.737 84.772C286.84 85.3833 287.048 86.9052 287.191 88.154C287.334 89.4027 287.502 91.1588 287.58 92.0563C287.645 92.9539 287.762 94.6189 287.84 95.7636C287.918 96.9083 288.022 100.121 288.087 102.918C288.164 106.807 288.242 108.082 288.372 108.355C288.476 108.55 288.632 108.706 288.71 108.706C288.8 108.706 288.956 108.576 289.073 108.407ZM1.0126 101.877C1.12943 101.773 1.24624 101.487 1.28519 101.253C1.31115 101.032 1.40203 100.16 1.47992 99.3407C1.54482 98.5212 1.67463 96.7391 1.73953 95.3733C1.81742 94.0075 1.96021 92.2254 2.06406 91.4059C2.15492 90.5865 2.28473 89.4678 2.32367 88.9345C2.37559 88.4011 2.5184 87.1134 2.66119 86.0727C2.80398 85.0321 3.10255 83.133 3.31024 81.8452C3.53092 80.5574 3.79051 79.0095 3.88138 78.3981C3.98523 77.7868 4.2189 76.6421 4.40063 75.8616C4.58237 75.0811 4.72516 74.3137 4.72516 74.1706C4.73814 74.0275 4.6343 73.8064 4.50449 73.6893C4.37468 73.5592 4.16698 73.4552 4.03717 73.4552C3.92034 73.4552 3.73861 73.5853 3.63477 73.7413C3.53092 73.9104 3.2583 74.7689 3.03763 75.6665C2.80397 76.564 2.57031 77.5526 2.5054 77.8778C2.4405 78.203 2.29773 78.9054 2.19388 79.4388C2.09003 79.9721 1.92127 80.9086 1.80444 81.52C1.7006 82.1314 1.51886 83.2761 1.41501 84.0565C1.31116 84.837 1.1424 86.1378 1.02557 86.9182C0.921726 87.6987 0.778936 88.7914 0.70105 89.3247C0.636145 89.858 0.519323 91.0027 0.441437 91.8612C0.376532 92.7197 0.24672 94.3327 0.155853 95.4384C0.0779675 96.544 9.15527e-05 98.3001 9.15527e-05 99.3407C9.15527e-05 100.681 0.0520142 101.318 0.181824 101.552C0.27269 101.734 0.415461 101.916 0.493347 101.968C0.571233 102.02 0.675096 102.072 0.72702 102.072C0.778944 102.072 0.908756 101.981 1.0126 101.877ZM5.99728 68.9285C6.14007 68.7333 6.55547 67.6146 6.93192 66.4309C7.30836 65.2472 7.84058 63.5822 8.12616 62.7237C8.39876 61.8652 8.74927 60.9156 8.89206 60.6035C9.02187 60.3043 9.13867 60.0181 9.13867 59.9531C9.13867 59.901 9.25549 59.5628 9.39828 59.2116C9.52809 58.8474 9.91756 57.8588 10.2551 57.0003C10.5926 56.1418 10.969 55.1792 11.0858 54.854C11.2156 54.5288 11.5142 53.7743 11.7738 53.163C12.0205 52.5516 12.4618 51.524 12.7733 50.8866C13.0719 50.2492 13.4354 49.4557 13.5782 49.1306C13.7209 48.8054 14.5647 47.0753 15.4474 45.2933C16.3302 43.4982 17.1869 41.8072 17.3556 41.521C17.5244 41.2348 17.8619 40.6234 18.1215 40.1552C18.3681 39.6869 18.7057 39.1015 18.8484 38.8544C19.0042 38.6072 19.3028 38.0739 19.5234 37.6837C19.7311 37.2935 20.0816 36.6691 20.2763 36.3179C20.484 35.9537 20.7696 35.4854 20.8994 35.2512C21.0293 35.0301 21.5615 34.1846 22.0807 33.3651C22.5869 32.5586 23.5086 31.1408 24.1317 30.2042C24.7548 29.2676 25.7932 27.7588 26.4423 26.8482C27.1043 25.9377 28.2726 24.3247 29.0515 23.2711C29.8303 22.2174 30.5183 21.3069 30.5832 21.2288C30.6481 21.1508 30.8169 20.9557 30.9597 20.7736C31.1155 20.5915 31.7126 19.863 32.2837 19.1476C32.8679 18.4322 33.7116 17.4046 34.1789 16.8712C34.6333 16.3379 35.3083 15.5444 35.6718 15.1282C36.0352 14.6989 36.6843 13.9705 37.1126 13.5022C37.541 13.0339 38.4367 12.0583 39.1117 11.3429C39.7867 10.6275 41.3444 9.04052 42.5517 7.8308C43.7719 6.60806 45.4724 4.95603 46.3291 4.16255C47.1859 3.36908 48.1465 2.48457 48.471 2.18539C48.7955 1.88621 49.0941 1.65208 49.146 1.65208C49.2109 1.65208 49.4056 1.43096 49.5874 1.15779C49.808 0.845604 49.8859 0.572436 49.847 0.377319C49.808 0.221226 49.6393 0.0521155 49.4705 0.013092C49.3147 -0.0259314 49.0162 0.0260645 48.7955 0.130127C48.5748 0.247197 48.1205 0.585441 47.77 0.897629C47.4195 1.20982 46.9782 1.60006 46.7835 1.78217C46.5887 1.96427 45.4464 3.04393 44.2522 4.18861C43.0449 5.3333 41.4742 6.8552 40.7473 7.58363C40.0334 8.29906 38.9819 9.37871 38.4107 9.99008C37.8396 10.5884 36.9309 11.577 36.3987 12.1754C35.8665 12.7738 35.2823 13.4242 35.1006 13.6193C34.9189 13.8014 34.5424 14.2437 34.2568 14.5949C33.9713 14.9331 33.2963 15.7265 32.764 16.3379C32.2318 16.9493 31.6217 17.6907 31.414 17.9769C31.1933 18.2631 30.9597 18.5492 30.8948 18.6273C30.8169 18.7053 30.3366 19.2516 29.8303 19.863C29.3241 20.4744 28.6361 21.3459 28.2986 21.8142C27.9741 22.2825 27.6495 22.7117 27.5976 22.7897C27.5327 22.8678 27.312 23.154 27.1043 23.4532C26.8966 23.7393 26.5332 24.2336 26.2995 24.5588C26.0658 24.871 25.7803 25.2482 25.6894 25.3913C25.5855 25.5344 25.3259 25.8986 25.1053 26.1978C24.8976 26.51 24.7158 26.7831 24.7158 26.8222C24.7158 26.8612 24.599 27.0173 24.4562 27.1734C24.3134 27.3425 23.95 27.8628 23.6514 28.3441C23.3399 28.8254 22.8855 29.5278 22.6259 29.905C22.3663 30.2823 21.8211 31.1018 21.4187 31.7261C21.0163 32.3635 20.6917 32.8968 20.6917 32.9358C20.6917 32.9749 20.536 33.196 20.3542 33.4171C20.1595 33.6513 19.848 34.1716 19.6403 34.5618C19.4326 34.952 18.9393 35.8106 18.5369 36.4479C18.1345 37.0853 17.7061 37.8268 17.5893 38.0739C17.4595 38.3211 17.083 39.0625 16.7325 39.6999C16.395 40.3373 16.0705 40.9226 16.0186 41.0007C15.9537 41.0787 15.2138 42.5096 14.37 44.2006C13.5263 45.8786 12.7084 47.5436 12.5527 47.9078C12.3969 48.259 12.0724 48.9875 11.8257 49.5208C11.5791 50.0541 11.1897 50.8736 10.969 51.3419C10.7483 51.8102 10.5666 52.2264 10.5666 52.2785C10.5666 52.3435 10.3589 52.8248 10.1122 53.3581C9.86561 53.8914 9.65793 54.3727 9.65793 54.4248C9.65793 54.4898 9.47617 54.9711 9.25549 55.5044C9.03482 56.0377 8.64541 57.0393 8.39877 57.7157C8.15214 58.3921 7.85357 59.2116 7.74973 59.5368C7.64588 59.862 7.47711 60.3173 7.37326 60.5384C7.26941 60.7726 7.19153 61.0197 7.19153 61.0977C7.19153 61.1758 7.06173 61.54 6.89297 61.9042C6.72422 62.2815 6.49059 62.9449 6.36078 63.3741C6.23097 63.8034 6.01026 64.4147 5.89343 64.7399C5.76362 65.0651 5.52998 65.7676 5.37421 66.3009C5.21844 66.8342 5.03668 67.4456 4.97177 67.6667C4.90687 67.8878 4.85495 68.2 4.85495 68.3821C4.85495 68.5642 4.94583 68.8374 5.04968 68.9935C5.15353 69.1626 5.36122 69.2927 5.49103 69.2927C5.63382 69.2927 5.86747 69.1366 5.99728 68.9285Z" fill="#FE3CAC"/>
</svg>
