<svg width="242" height="209" viewBox="0 0 242 209" fill="none" xmlns="http://www.w3.org/2000/svg">
<path fill-rule="evenodd" clip-rule="evenodd" d="M116.374 208.476C116.223 208.455 115.108 208.379 113.886 208.314C112.664 208.249 111.128 208.151 110.478 208.097C109.829 208.032 108.661 207.923 107.882 207.837C107.103 207.75 106.065 207.598 105.557 207.511C105.048 207.414 104.529 207.284 104.388 207.208C104.258 207.132 104.118 206.991 104.085 206.904C104.053 206.807 104.139 206.655 104.28 206.536C104.507 206.362 104.68 206.341 106.043 206.395C106.876 206.428 108.412 206.536 109.451 206.623C110.489 206.72 112.025 206.85 112.858 206.915C113.691 206.969 116.515 207.024 119.132 207.024C121.804 207.024 124.314 206.98 124.866 206.915C125.396 206.85 126.369 206.796 127.029 206.796C127.916 206.796 128.284 206.839 128.468 206.959C128.598 207.045 128.706 207.197 128.706 207.284C128.706 207.371 128.598 207.522 128.468 207.609C128.327 207.696 127.754 207.858 127.191 207.978C126.629 208.097 125.406 208.238 124.487 208.303C123.568 208.357 121.426 208.433 119.727 208.465C118.029 208.487 116.525 208.498 116.374 208.476ZM141.968 205.983C141.86 205.886 141.784 205.755 141.784 205.701C141.795 205.647 141.903 205.484 142.044 205.333C142.238 205.116 142.649 204.975 144.283 204.585C145.386 204.325 146.457 204.075 146.663 204.032C146.868 203.999 147.485 203.869 148.015 203.739C148.545 203.609 149.724 203.327 150.611 203.089C151.509 202.861 152.331 202.623 152.45 202.569C152.569 202.514 153.012 202.373 153.424 202.265C153.835 202.146 154.624 201.918 155.154 201.766C155.684 201.604 156.69 201.279 157.372 201.04C158.053 200.802 159.2 200.422 159.914 200.184C160.628 199.956 161.58 199.685 162.023 199.588C162.467 199.49 162.954 199.425 163.105 199.447C163.278 199.468 163.386 199.555 163.408 199.696C163.43 199.815 163.354 200 163.246 200.119C163.138 200.227 162.856 200.401 162.618 200.509C162.38 200.617 161.948 200.812 161.645 200.943C161.353 201.073 160.909 201.246 160.671 201.333C160.433 201.409 159.968 201.571 159.644 201.701C159.319 201.831 158.151 202.233 157.047 202.612C155.944 202.98 154.776 203.36 154.451 203.436C154.127 203.512 153.813 203.609 153.748 203.663C153.683 203.707 152.883 203.945 151.963 204.184C151.044 204.422 149.994 204.693 149.637 204.802C149.28 204.899 148.458 205.094 147.798 205.224C147.139 205.365 146.003 205.593 145.256 205.745C144.51 205.896 143.504 206.048 143.028 206.091C142.292 206.146 142.119 206.124 141.968 205.983ZM174.68 194.851C174.593 194.775 174.539 194.656 174.55 194.58C174.561 194.504 174.669 194.309 174.799 194.135C174.918 193.973 175.21 193.745 175.437 193.626C175.664 193.506 176.162 193.236 176.54 193.019C176.919 192.802 177.438 192.498 177.709 192.357C177.979 192.206 178.368 191.989 178.574 191.87C178.78 191.75 179.245 191.49 179.602 191.295C179.959 191.1 180.543 190.764 180.9 190.547C181.257 190.33 181.722 190.059 181.938 189.94C182.144 189.821 182.847 189.409 183.474 189.019C184.113 188.629 185.811 187.534 187.26 186.569C188.699 185.615 190.257 184.564 190.711 184.238C191.176 183.913 192.161 183.187 192.918 182.623C193.664 182.06 194.605 181.366 194.995 181.084C195.395 180.791 195.958 180.358 196.26 180.109C196.553 179.848 197.007 179.48 197.256 179.285C197.515 179.1 197.991 178.819 198.316 178.667C198.64 178.515 199.008 178.396 199.127 178.396C199.257 178.396 199.365 178.483 199.398 178.613C199.43 178.732 199.365 178.96 199.257 179.122C199.16 179.274 198.878 179.556 198.629 179.74C198.391 179.924 197.807 180.412 197.342 180.835C196.877 181.258 196.271 181.789 196.001 182.027C195.73 182.276 194.735 183.057 193.794 183.762C192.842 184.477 191.966 185.138 191.847 185.225C191.717 185.312 191.317 185.604 190.96 185.875C190.603 186.146 189.921 186.634 189.446 186.938C188.97 187.252 188.569 187.501 188.548 187.501C188.537 187.501 188.299 187.664 188.007 187.848C187.726 188.043 187.423 188.26 187.325 188.314C187.228 188.368 186.979 188.509 186.784 188.629C186.579 188.737 186.07 189.062 185.659 189.344C185.248 189.626 183.994 190.374 182.869 191.003C181.754 191.642 180.824 192.162 180.792 192.162C180.759 192.162 180.554 192.282 180.326 192.423C180.11 192.574 179.612 192.867 179.223 193.073C178.834 193.29 177.99 193.723 177.33 194.048C176.67 194.374 175.924 194.721 175.653 194.818C175.383 194.905 175.091 194.981 174.993 194.981C174.907 194.981 174.766 194.927 174.68 194.851ZM61.5298 193.04C60.9673 192.748 60.4372 192.455 60.3615 192.39C60.2966 192.325 60.21 192.271 60.1776 192.271C60.1451 192.271 59.8206 192.097 59.442 191.891C59.0742 191.675 58.674 191.447 58.555 191.371C58.436 191.306 57.9492 190.992 57.4732 190.688C56.9973 190.385 56.1643 189.875 55.6343 189.561C55.0934 189.236 53.8062 188.401 52.7677 187.686C51.7292 186.981 50.3338 186.027 49.6739 185.572C49.014 185.117 47.6727 184.13 46.6991 183.393C45.7255 182.656 44.871 181.995 44.8169 181.93C44.752 181.865 44.4599 181.615 44.1678 181.377C43.865 181.138 43.3133 180.683 42.9238 180.347C42.5344 180.022 42.1666 179.697 42.0909 179.642C42.026 179.588 41.7556 179.361 41.5068 179.155C41.2471 178.949 40.7496 178.504 40.3818 178.19C40.0248 177.865 39.5921 177.464 39.4082 177.301C39.2243 177.138 38.77 176.716 38.3805 176.358C37.9911 176 36.7255 174.765 35.568 173.605C34.3997 172.456 32.9178 170.949 32.2579 170.266C31.6088 169.583 30.5163 168.38 29.8456 167.61C29.1641 166.83 28.461 166.028 28.2771 165.822C28.0932 165.616 27.4442 164.835 26.8276 164.087C26.211 163.339 24.9886 161.768 24.0908 160.586C23.2037 159.415 22.479 158.429 22.479 158.396C22.479 158.364 22.4357 158.277 22.3708 158.201C22.3167 158.136 22.1544 157.93 22.0138 157.746C21.8732 157.562 21.3431 156.814 20.8347 156.066C20.3263 155.318 19.6556 154.321 19.3419 153.844C19.0174 153.367 18.6821 152.857 18.5847 152.706C18.4873 152.554 18.0222 151.828 17.557 151.08C17.0919 150.332 16.5943 149.508 16.4429 149.237C16.2914 148.966 16.0751 148.576 15.9561 148.37C15.8371 148.164 15.664 147.871 15.5883 147.719C15.5017 147.568 15.3179 147.253 15.1664 147.015C15.0258 146.776 14.8635 146.484 14.8094 146.364C14.7553 146.245 14.5606 145.877 14.3659 145.551C14.1712 145.226 13.652 144.251 13.1976 143.383C12.7541 142.516 12.1592 141.346 11.8779 140.782C11.5967 140.218 11.1856 139.362 10.9584 138.885C10.7421 138.408 10.2229 137.237 9.80098 136.283C9.38992 135.329 8.9464 134.332 8.83823 134.061C8.71924 133.79 8.54616 133.443 8.47043 133.27C8.3839 133.107 8.30817 132.923 8.30817 132.869C8.30817 132.815 8.24327 132.598 8.15673 132.403C8.07019 132.218 7.87548 131.741 7.72404 131.351C7.57259 130.961 7.37788 130.43 7.28053 130.159C7.18317 129.888 6.78293 128.717 6.3935 127.557C6.00407 126.397 5.57138 124.977 5.43075 124.414C5.29013 123.85 5.17113 123.189 5.17113 122.95C5.16032 122.69 5.22522 122.463 5.33339 122.376C5.4632 122.268 5.53892 122.289 5.712 122.463C5.83099 122.582 6.01489 122.885 6.12307 123.135C6.24206 123.395 6.43677 123.893 6.56658 124.251C6.70721 124.609 6.88028 125.075 6.97764 125.281C7.06418 125.487 7.30216 126.202 7.49687 126.853C7.69159 127.503 7.98365 128.392 8.14591 128.804C8.29736 129.216 8.48125 129.736 8.54616 129.942C8.60024 130.148 8.6976 130.376 8.74087 130.43C8.79496 130.484 8.96803 130.907 9.11948 131.351C9.28174 131.796 9.49809 132.359 9.60626 132.598C9.71444 132.836 9.90915 133.324 10.039 133.682C10.1688 134.04 10.3959 134.603 10.5474 134.928C10.6988 135.254 10.8611 135.622 10.9043 135.741C10.9476 135.861 11.1315 136.273 11.3154 136.663C11.4885 137.053 11.7481 137.638 11.8887 137.964C12.0185 138.289 12.1916 138.636 12.2673 138.722C12.3539 138.809 12.4188 138.917 12.4188 138.961C12.4188 139.015 12.6892 139.622 13.0246 140.316C13.3491 141.02 13.7061 141.768 13.8142 141.974C13.9224 142.18 14.1279 142.57 14.2794 142.841C14.4308 143.112 14.7878 143.763 15.069 144.305C15.3503 144.847 15.6748 145.41 15.783 145.573C15.8912 145.746 15.9885 145.898 15.9885 145.931C15.9885 145.963 16.0751 146.115 16.1941 146.278C16.3022 146.451 16.6376 147.015 16.9296 147.557C17.2325 148.099 17.5787 148.727 17.7193 148.966C17.8491 149.204 18.0871 149.573 18.2494 149.779C18.4116 149.985 18.6604 150.397 18.8011 150.7C18.9525 150.993 19.0931 151.264 19.1256 151.296C19.158 151.329 19.5366 151.871 19.9585 152.51C20.3912 153.161 20.7482 153.735 20.7482 153.79C20.7482 153.844 20.7806 153.909 20.8239 153.92C20.878 153.941 21.1484 154.321 21.4513 154.765C21.7434 155.21 22.0138 155.6 22.0463 155.632C22.0787 155.665 22.5222 156.272 23.0307 156.987C23.5391 157.703 24.1989 158.635 24.4802 159.047C24.7723 159.459 25.1184 159.925 25.2699 160.077C25.4105 160.228 25.7891 160.695 26.1028 161.106C26.4165 161.518 26.7627 161.974 26.8708 162.104C26.9898 162.234 27.1954 162.494 27.3468 162.689C27.4982 162.884 27.7795 163.242 27.9742 163.48C28.1689 163.73 28.5043 164.142 28.7314 164.402C28.9478 164.673 29.8564 165.724 30.7435 166.732C31.6305 167.751 32.8961 169.15 33.556 169.832C34.2158 170.515 35.2976 171.61 35.9466 172.271C36.6065 172.922 37.6558 173.952 38.2724 174.548C38.8998 175.144 40.014 176.163 40.7604 176.813C41.5068 177.474 42.1666 178.06 42.2315 178.114C42.2964 178.179 42.5561 178.407 42.8157 178.613C43.0645 178.819 43.6702 179.328 44.157 179.74C44.633 180.152 45.9094 181.149 46.9804 181.951C48.0513 182.753 49.0032 183.48 49.0898 183.566C49.1763 183.653 49.609 183.967 50.0525 184.282C50.4852 184.596 50.9612 184.921 51.091 185.008C51.2316 185.095 51.6968 185.409 52.1403 185.713C52.573 186.005 52.9516 186.287 52.984 186.32C53.0165 186.352 53.4384 186.667 53.9251 187.003C54.4227 187.339 54.8446 187.61 54.8771 187.61C54.9095 187.61 55.4828 187.967 56.1427 188.401C56.8134 188.845 57.5598 189.312 57.7978 189.442C58.0358 189.572 58.5225 189.875 58.8795 190.114C59.2365 190.341 59.6043 190.569 59.6908 190.612C59.7774 190.645 59.9288 190.742 60.0153 190.818C60.1019 190.883 60.3507 191.046 60.5562 191.154C60.7617 191.274 61.3675 191.61 61.8867 191.902C62.4276 192.206 62.9577 192.585 63.1091 192.78C63.2497 192.975 63.3579 193.225 63.3363 193.322C63.3255 193.463 63.1956 193.528 62.936 193.539C62.6656 193.561 62.2762 193.42 61.5298 193.04ZM207.727 170.624C207.673 170.591 207.64 170.429 207.651 170.277C207.662 170.125 207.803 169.789 207.965 169.54C208.138 169.29 208.581 168.727 208.971 168.282C209.36 167.849 209.944 167.177 210.269 166.797C210.594 166.418 211.232 165.692 211.686 165.182C212.13 164.673 213.06 163.545 213.741 162.678C214.423 161.811 215.515 160.402 216.164 159.535C216.814 158.667 217.701 157.453 218.133 156.825C218.566 156.196 219.604 154.678 220.437 153.432C221.27 152.196 221.952 151.166 221.952 151.134C221.952 151.101 222.071 150.917 222.222 150.722C222.363 150.538 222.493 150.343 222.493 150.288C222.493 150.245 222.666 149.941 222.871 149.616C223.077 149.291 223.25 148.998 223.25 148.966C223.25 148.933 223.412 148.652 223.607 148.337C223.812 148.034 224.159 147.427 224.386 147.015C224.602 146.603 224.894 146.061 225.035 145.822C225.165 145.584 225.381 145.194 225.522 144.955C225.662 144.717 226.062 143.958 226.419 143.275C226.776 142.592 227.306 141.541 227.598 140.944C227.891 140.348 228.226 139.687 228.334 139.481C228.453 139.275 228.54 139.037 228.55 138.961C228.55 138.896 228.637 138.701 228.745 138.527C228.853 138.365 229.362 137.281 229.87 136.121C230.389 134.961 231.006 133.465 231.244 132.815C231.493 132.164 231.731 131.525 231.785 131.405C231.839 131.286 232.163 130.43 232.499 129.508C232.845 128.587 233.202 127.579 233.31 127.286C233.418 126.983 233.699 126.17 233.948 125.465C234.186 124.772 234.489 123.872 234.597 123.46C234.705 123.059 234.987 122.127 235.214 121.379C235.43 120.631 236.025 118.419 236.523 116.447C237.02 114.474 237.529 112.382 237.648 111.785C237.767 111.189 237.972 110.073 238.124 109.292C238.264 108.512 238.437 107.471 238.502 106.962C238.578 106.452 238.643 106.019 238.665 105.986C238.686 105.954 238.805 105.227 238.935 104.36C239.065 103.493 239.216 102.377 239.27 101.867C239.325 101.358 239.476 100.36 239.606 99.6449C239.746 98.9403 239.919 98.2899 239.984 98.2141C240.06 98.1382 240.222 98.0731 240.341 98.0731C240.46 98.0731 240.644 98.2032 240.742 98.3658C240.893 98.626 240.915 98.8211 240.85 99.6449C240.806 100.187 240.666 101.347 240.558 102.246C240.439 103.135 240.32 103.992 240.287 104.143C240.255 104.295 240.157 104.956 240.071 105.607C239.984 106.257 239.844 107.233 239.746 107.775C239.66 108.317 239.508 109.119 239.422 109.563C239.335 110.008 239.195 110.745 239.108 111.189C239.022 111.634 238.751 112.88 238.502 113.953C238.254 115.027 237.983 116.219 237.897 116.609C237.81 116.999 237.529 118.116 237.269 119.102C237.01 120.089 236.631 121.476 236.415 122.192C236.198 122.907 235.733 124.37 235.376 125.444C235.019 126.517 234.554 127.904 234.338 128.533C234.111 129.162 233.84 129.877 233.732 130.126C233.624 130.387 233.526 130.647 233.526 130.701C233.526 130.755 233.461 130.972 233.375 131.156C233.288 131.351 233.061 131.904 232.877 132.381C232.693 132.858 232.499 133.346 232.455 133.465C232.401 133.584 232.304 133.823 232.228 134.007C232.153 134.191 231.925 134.744 231.72 135.254C231.514 135.763 231.266 136.348 231.179 136.554C231.082 136.76 230.833 137.302 230.627 137.747C230.422 138.191 230.13 138.831 229.989 139.156C229.838 139.481 229.21 140.804 228.583 142.083C227.955 143.362 227.187 144.847 226.863 145.389C226.549 145.931 226.246 146.484 226.181 146.635C226.116 146.787 225.943 147.101 225.792 147.34C225.641 147.578 225.467 147.882 225.413 148.012C225.348 148.153 225.035 148.695 224.71 149.237C224.386 149.779 224.115 150.245 224.115 150.288C224.115 150.343 223.985 150.538 223.845 150.722C223.693 150.917 223.574 151.112 223.574 151.156C223.564 151.21 223.401 151.47 223.196 151.752C222.99 152.044 222.817 152.294 222.817 152.326C222.817 152.359 222.568 152.76 222.255 153.215C221.952 153.681 221.487 154.375 221.238 154.765C220.978 155.155 220.448 155.947 220.037 156.543C219.637 157.128 218.728 158.396 218.036 159.361C217.344 160.315 216.413 161.562 215.981 162.125C215.548 162.678 214.661 163.773 214.012 164.564C213.363 165.345 212.66 166.179 212.454 166.418C212.249 166.656 211.34 167.621 210.442 168.564C209.544 169.507 208.646 170.374 208.452 170.494C208.268 170.602 208.041 170.7 207.965 170.7C207.878 170.7 207.781 170.667 207.727 170.624ZM0.35739 90.778C0.260034 90.6371 0.141044 90.0626 0.0761401 89.4013C0.000418333 88.6642 -0.0212165 86.854 0.0220531 84.2524C0.0653227 81.7051 0.173494 79.3529 0.303303 77.8028C0.422294 76.4586 0.595373 74.6809 0.69273 73.8463C0.779269 73.0116 0.930714 71.8192 1.00644 71.1905C1.09298 70.5618 1.21197 69.6838 1.27687 69.2394C1.33096 68.7949 1.49322 67.8627 1.61221 67.1798C1.74202 66.4969 1.95837 65.3262 2.09899 64.5783C2.25044 63.8303 2.44515 62.8764 2.53169 62.4645C2.62905 62.0526 2.80212 61.2938 2.9103 60.7843C3.02929 60.2749 3.21319 59.4944 3.32136 59.05C3.44035 58.6055 3.58098 58.0202 3.64588 57.7492C3.71079 57.4782 3.95959 56.5026 4.20839 55.5812C4.44637 54.6599 4.72762 53.771 4.82498 53.5976C4.97642 53.3591 5.0846 53.3049 5.40912 53.3049C5.72282 53.3049 5.85263 53.3591 5.93917 53.5434C6.02571 53.7276 6.02571 53.9119 5.94999 54.2263C5.88508 54.4647 5.69037 55.1043 5.51729 55.6354C5.34421 56.1666 5.09541 57.0771 4.9656 57.6408C4.83579 58.2045 4.60863 59.2126 4.45719 59.863C4.31656 60.5133 4.12185 61.348 4.03531 61.7057C3.95958 62.0634 3.78651 62.8222 3.66752 63.3859C3.53771 63.9496 3.36463 64.7842 3.26727 65.2286C3.18073 65.6731 3.00765 66.5836 2.89948 67.234C2.78049 67.8844 2.62905 68.8166 2.57496 69.2936C2.51005 69.7705 2.39106 70.5726 2.30452 71.0821C2.21798 71.5916 2.04491 72.8598 1.92591 73.9005C1.80692 74.9411 1.6663 76.4044 1.60139 77.1524C1.54731 77.9003 1.44995 79.2878 1.38504 80.2417C1.32014 81.1956 1.2336 83.873 1.17951 86.2036C1.11461 89.4447 1.04971 90.507 0.941534 90.7346C0.854995 90.8972 0.725183 91.0273 0.660279 91.0273C0.584557 91.0273 0.454747 90.9189 0.35739 90.778ZM240.406 85.3364C240.309 85.2497 240.212 85.0112 240.179 84.8161C240.157 84.6318 240.082 83.9056 240.017 83.2227C239.963 82.5398 239.855 81.0547 239.8 79.9165C239.736 78.7783 239.617 77.2933 239.53 76.6104C239.454 75.9275 239.346 74.9953 239.314 74.5508C239.27 74.1064 239.151 73.0333 239.032 72.1661C238.913 71.2989 238.665 69.7163 238.492 68.6432C238.308 67.57 238.091 66.2801 238.016 65.7706C237.929 65.2612 237.734 64.3072 237.583 63.6569C237.431 63.0065 237.312 62.3669 237.312 62.2477C237.302 62.1285 237.388 61.9442 237.496 61.8466C237.605 61.7382 237.778 61.6515 237.886 61.6515C237.983 61.6515 238.135 61.7599 238.221 61.89C238.308 62.0309 238.535 62.7463 238.719 63.4943C238.913 64.2422 239.108 65.066 239.162 65.337C239.216 65.608 239.335 66.1934 239.422 66.6378C239.508 67.0822 239.649 67.8627 239.746 68.3722C239.833 68.8816 239.984 69.8355 240.071 70.4859C240.157 71.1363 240.298 72.2203 240.395 72.8707C240.482 73.5211 240.601 74.4316 240.666 74.876C240.72 75.3205 240.817 76.2744 240.882 76.9898C240.936 77.7052 241.044 79.0493 241.12 79.9707C241.185 80.8921 241.25 82.3555 241.25 83.2227C241.25 84.3392 241.207 84.8703 241.099 85.0654C241.023 85.2172 240.904 85.3689 240.839 85.4123C240.774 85.4557 240.688 85.499 240.644 85.499C240.601 85.499 240.493 85.4231 240.406 85.3364ZM236.252 57.8793C236.133 57.7167 235.787 56.7845 235.474 55.798C235.16 54.8116 234.716 53.4241 234.478 52.7087C234.251 51.9933 233.959 51.202 233.84 50.9418C233.732 50.6925 233.635 50.454 233.635 50.3998C233.635 50.3565 233.537 50.0746 233.418 49.782C233.31 49.4784 232.986 48.6546 232.704 47.9392C232.423 47.2238 232.109 46.4216 232.012 46.1506C231.904 45.8796 231.655 45.2509 231.439 44.7415C231.233 44.232 230.865 43.3757 230.606 42.8445C230.357 42.3134 230.054 41.6521 229.935 41.3811C229.816 41.1101 229.113 39.6685 228.377 38.1834C227.642 36.6875 226.928 35.2783 226.787 35.0399C226.647 34.8014 226.365 34.2919 226.149 33.9017C225.943 33.5115 225.662 33.0237 225.543 32.8177C225.413 32.6118 225.165 32.1673 224.981 31.8421C224.808 31.5169 224.515 30.9966 224.353 30.704C224.18 30.4005 223.942 30.0102 223.834 29.8151C223.726 29.6308 223.282 28.9262 222.85 28.2433C222.428 27.5713 221.66 26.3897 221.14 25.6093C220.621 24.8288 219.756 23.5714 219.215 22.8126C218.663 22.0538 217.69 20.7097 217.041 19.8317C216.392 18.9537 215.818 18.1949 215.764 18.1299C215.71 18.0648 215.569 17.9022 215.451 17.7505C215.321 17.5987 214.823 16.9917 214.347 16.3955C213.86 15.7993 213.157 14.943 212.768 14.4985C212.389 14.0541 211.827 13.3929 211.524 13.046C211.221 12.6883 210.68 12.0813 210.323 11.691C209.966 11.3008 209.22 10.4878 208.657 9.89165C208.095 9.29546 206.797 7.97299 205.791 6.9649C204.774 5.94596 203.357 4.56926 202.643 3.90804C201.929 3.24681 201.128 2.50974 200.858 2.26043C200.587 2.01112 200.339 1.81601 200.295 1.81601C200.241 1.81601 200.079 1.63173 199.928 1.40409C199.744 1.14394 199.679 0.916307 199.711 0.753711C199.744 0.623634 199.884 0.482699 200.025 0.45018C200.155 0.417661 200.404 0.460999 200.587 0.547717C200.771 0.645275 201.15 0.927143 201.442 1.1873C201.734 1.44745 202.102 1.77266 202.264 1.92441C202.426 2.07617 203.378 2.97586 204.374 3.92976C205.38 4.88366 206.688 6.15191 207.294 6.75894C207.889 7.35512 208.765 8.25483 209.241 8.76429C209.717 9.26292 210.475 10.0867 210.918 10.5854C211.362 11.084 211.848 11.626 212 11.7886C212.151 11.9404 212.465 12.3089 212.703 12.6016C212.941 12.8834 213.503 13.5446 213.947 14.0541C214.39 14.5636 214.899 15.1814 215.072 15.4199C215.256 15.6584 215.451 15.8969 215.505 15.9619C215.57 16.0269 215.97 16.4822 216.392 16.9917C216.814 17.5011 217.387 18.2274 217.668 18.6176C217.939 19.0079 218.209 19.3656 218.252 19.4306C218.306 19.4956 218.49 19.7341 218.663 19.9834C218.836 20.2219 219.139 20.6338 219.334 20.9048C219.529 21.165 219.767 21.4793 219.842 21.5985C219.929 21.7178 220.145 22.0213 220.329 22.2706C220.502 22.5308 220.654 22.7584 220.654 22.7909C220.654 22.8235 220.751 22.9535 220.87 23.0836C220.989 23.2245 221.292 23.6581 221.541 24.0592C221.8 24.4603 222.179 25.0456 222.395 25.36C222.612 25.6743 223.066 26.3572 223.401 26.8775C223.737 27.4087 224.007 27.8531 224.007 27.8856C224.007 27.9181 224.137 28.1024 224.288 28.2867C224.451 28.4818 224.71 28.9154 224.883 29.2406C225.056 29.5658 225.467 30.2812 225.803 30.8124C226.138 31.3435 226.495 31.9614 226.592 32.1673C226.701 32.3733 227.014 32.9912 227.306 33.5223C227.588 34.0535 227.858 34.5412 227.901 34.6063C227.955 34.6713 228.572 35.8637 229.275 37.2729C229.978 38.6712 230.66 40.0587 230.79 40.3622C230.919 40.6549 231.19 41.2619 231.395 41.7063C231.601 42.1508 231.925 42.8337 232.109 43.2239C232.293 43.6141 232.445 43.961 232.445 44.0044C232.445 44.0586 232.618 44.4596 232.823 44.9041C233.029 45.3485 233.202 45.7496 233.202 45.7929C233.202 45.8471 233.353 46.2482 233.537 46.6926C233.721 47.1371 234.046 47.9717 234.251 48.5354C234.457 49.0991 234.705 49.782 234.792 50.053C234.879 50.3239 235.019 50.7034 235.106 50.8876C235.192 51.0827 235.257 51.2887 235.257 51.3537C235.257 51.4188 235.365 51.7223 235.506 52.0258C235.647 52.3401 235.841 52.893 235.949 53.2507C236.058 53.6084 236.242 54.1179 236.339 54.3889C236.447 54.6599 236.642 55.2452 236.772 55.6896C236.901 56.1341 237.053 56.6435 237.107 56.8278C237.161 57.0121 237.204 57.2723 237.204 57.424C237.204 57.5758 237.129 57.8034 237.042 57.9335C236.956 58.0744 236.782 58.1828 236.674 58.1828C236.555 58.1828 236.361 58.0527 236.252 57.8793Z" fill="#CFFF04"/>
</svg>
