<svg width="64" height="64" viewBox="0 0 64 64" fill="none" xmlns="http://www.w3.org/2000/svg">
<rect width="64" height="64" rx="16" fill="#0477BF" fill-opacity="0.5"/>
<path d="M32 8C33.4516 8.00021 34.8624 8.48258 36.0096 9.37204C37.1431 10.251 37.9551 11.4786 38.3233 12.8639L44.5635 34.9039L53.4178 38.9369C54.182 39.2782 54.8302 39.8318 55.2884 40.5326C55.7519 41.2417 55.9995 42.0717 56 42.9188C56.0004 43.7655 55.7529 44.5935 55.2905 45.3028C54.8325 46.0053 54.181 46.5585 53.4157 46.9007L53.4178 46.9028L34.7121 55.412L34.71 55.4099C33.8587 55.7975 32.9354 55.9999 32 56C31.0629 56 30.1362 55.7987 29.2836 55.4099L10.5779 46.8815C9.81466 46.5391 9.16439 45.9825 8.70732 45.2815C8.24564 44.5729 8.00004 43.7453 8 42.8996C8 42.0534 8.24518 41.2244 8.70732 40.5156C9.16486 39.8139 9.81582 39.26 10.58 38.9177L19.4344 34.8868L25.6746 12.8639C26.0428 11.4786 26.8547 10.251 27.9883 9.37204C29.1358 8.48231 30.548 8 32 8ZM23.3864 36.9406C23.3701 37.0112 23.352 37.0809 23.3289 37.1494L23.2969 37.2644V37.2687C23.2545 37.4175 23.2482 37.5923 23.4141 37.8738C23.6079 38.2025 24.0384 38.6578 24.8479 39.1244C25.6454 39.5838 26.6977 39.9882 27.9542 40.2748C29.2055 40.5603 30.5871 40.7137 31.9979 40.7137C33.4082 40.7136 34.7884 40.5602 36.0394 40.2748C37.2964 39.9881 38.3503 39.584 39.1478 39.1244C39.9571 38.6579 40.3879 38.2024 40.5816 37.8738C40.747 37.5928 40.7411 37.4174 40.6988 37.2687L40.6967 37.2644L39.4589 32.8948C38.8334 33.1367 38.1769 33.3459 37.4988 33.519C35.7722 33.9598 33.8903 34.1837 32 34.1838C30.1093 34.1838 28.226 33.9599 26.4991 33.519C25.8193 33.3455 25.1616 33.1353 24.5348 32.8927L23.3864 36.9406ZM36.6061 22.8133C35.1322 23.118 33.5686 23.2756 31.9979 23.2756C30.4275 23.2756 28.8633 23.1179 27.3896 22.8133L25.73 28.67C26.269 28.9031 26.8877 29.1156 27.5792 29.2921C28.9238 29.6353 30.442 29.8205 32 29.8205C33.558 29.8204 35.0762 29.6354 36.4208 29.2921C37.1103 29.1161 37.7258 28.9024 38.2636 28.67L36.6061 22.8133ZM32 12.3632C31.516 12.3632 31.0446 12.5247 30.662 12.8213C30.2797 13.1179 30.0071 13.533 29.8866 14.0016C29.8821 14.0188 29.8765 14.0357 29.8716 14.0527L28.5806 18.6035C29.6515 18.8035 30.8094 18.9124 31.9979 18.9124C33.1859 18.9123 34.3424 18.8034 35.413 18.6035L34.1262 14.0527C34.1214 14.0358 34.1157 14.0186 34.1113 14.0016C33.9908 13.533 33.7182 13.1179 33.3358 12.8213C32.9536 12.5249 32.4837 12.3635 32 12.3632ZM12.3888 42.9103L31.0945 51.4407C31.3786 51.5702 31.6879 51.6367 32 51.6367C32.3121 51.6366 32.6215 51.5703 32.9055 51.4407L51.6112 42.9316L51.6367 42.9209L51.6091 42.9081L44.5486 39.6932C44.4834 39.8266 44.4161 39.96 44.3398 40.0895C43.6503 41.2595 42.5633 42.1903 41.3252 42.9039C40.0749 43.6244 38.5968 44.1676 37.0109 44.5294C35.4196 44.8925 33.7117 45.0769 31.9979 45.077C30.2837 45.077 28.5743 44.8926 26.9827 44.5294C25.3968 44.1676 23.9187 43.6244 22.6684 42.9039C21.4303 42.1903 20.3433 41.2595 19.6538 40.0895C19.5749 39.9556 19.5035 39.8185 19.4365 39.6804L12.3632 42.8996L12.3888 42.9103Z" fill="#0477BF"/>
</svg>
